<?xml version="1.0" encoding="utf-8"?>
<!-- Generator: Adobe Illustrator 14.0.0, SVG Export Plug-In . SVG Version: 6.00 Build 43363)  -->
<!DOCTYPE svg PUBLIC "-//W3C//DTD SVG 1.1//EN" "http://www.w3.org/Graphics/SVG/1.1/DTD/svg11.dtd" [
	<!ENTITY ns_extend "http://ns.adobe.com/Extensibility/1.0/">
	<!ENTITY ns_ai "http://ns.adobe.com/AdobeIllustrator/10.0/">
	<!ENTITY ns_graphs "http://ns.adobe.com/Graphs/1.0/">
	<!ENTITY ns_vars "http://ns.adobe.com/Variables/1.0/">
	<!ENTITY ns_imrep "http://ns.adobe.com/ImageReplacement/1.0/">
	<!ENTITY ns_sfw "http://ns.adobe.com/SaveForWeb/1.0/">
	<!ENTITY ns_custom "http://ns.adobe.com/GenericCustomNamespace/1.0/">
	<!ENTITY ns_adobe_xpath "http://ns.adobe.com/XPath/1.0/">
]>
<svg version="1.1" id="Layer_1" xmlns:x="&ns_extend;" xmlns:i="&ns_ai;" xmlns:graph="&ns_graphs;"
	 xmlns="http://www.w3.org/2000/svg" xmlns:xlink="http://www.w3.org/1999/xlink" x="0px" y="0px" width="216px" height="144px"
	 viewBox="0 0 216 144" enable-background="new 0 0 216 144" xml:space="preserve">
<metadata>
	<sfw  xmlns="&ns_sfw;">
		<slices></slices>
		<sliceSourceBounds  height="16383" width="16383" x="-8083" y="-8120" bottomLeftOrigin="true"></sliceSourceBounds>
	</sfw>
</metadata>
<g>
	<g>
		<defs>
			<filter id="Adobe_OpacityMaskFilter" filterUnits="userSpaceOnUse" x="90.56" y="21.84" width="105.354" height="101.081">
				<feColorMatrix  type="matrix" values="1 0 0 0 0  0 1 0 0 0  0 0 1 0 0  0 0 0 1 0"/>
			</filter>
		</defs>
		<mask maskUnits="userSpaceOnUse" x="90.56" y="21.84" width="105.354" height="101.081" id="SVGID_1_">
			<g filter="url(#Adobe_OpacityMaskFilter)">
				
					<radialGradient id="SVGID_2_" cx="283.749" cy="3173.1279" r="22.8276" gradientTransform="matrix(2.0467 -0.3989 0.4685 1.9743 -1924.1222 -6079.1392)" gradientUnits="userSpaceOnUse">
					<stop  offset="0.2474" style="stop-color:#FFFFFF"/>
					<stop  offset="0.6753" style="stop-color:#BDBDBD"/>
					<stop  offset="0.933" style="stop-color:#010101"/>
				</radialGradient>
				<path fill="url(#SVGID_2_)" d="M191.809,62.914c6.14,25.883-10.63,51.112-37.446,56.335
					c-26.826,5.223-53.557-11.529-59.697-37.409c-6.14-25.875,10.625-51.089,37.448-56.326
					C158.938,20.295,185.66,37.042,191.809,62.914z"/>
			</g>
		</mask>
		<path mask="url(#SVGID_1_)" fill="#FFFFFF" d="M194.575,62.379c6.49,27.356-11.233,54.017-39.584,59.532
			c-28.35,5.526-56.6-12.18-63.091-39.528c-6.492-27.355,11.233-53.999,39.579-59.535C159.833,17.329,188.079,35.028,194.575,62.379
			z"/>
		<g>
			<defs>
				<polygon id="SVGID_3_" points="142.96,18.037 144.075,54.954 146.285,55.241 156.542,19.752 148.439,55.792 150.506,56.608 
					152.46,57.686 172.425,32.822 154.262,58.992 155.881,60.516 157.306,62.231 187.987,44.516 158.495,64.111 191.035,57.333 
					160.549,70.429 197.471,69.223 160.688,72.653 192.104,75.771 160.549,74.876 160.137,77.06 194.904,89.53 159.442,79.18 
					158.495,81.193 184.366,98.68 157.306,83.07 155.881,84.784 180.35,112.465 154.262,86.313 171.982,112.822 152.46,87.62 
					166.121,113.965 150.506,88.688 148.439,89.509 156.915,124.998 146.285,90.06 144.075,90.343 141.848,90.343 137.505,120.252 
					139.643,90.06 129.377,125.553 137.483,89.509 135.413,88.688 119.963,115.604 133.459,87.62 131.661,86.313 106.651,112.202 
					130.037,84.784 106.854,103.117 128.617,83.07 127.428,81.193 95.499,95.38 126.476,79.18 125.791,77.06 95.191,82.062 
					125.373,74.876 88.448,76.078 125.234,72.653 125.373,70.429 89.307,62.414 125.791,68.241 91.019,55.77 126.476,66.122 
					127.428,64.111 96.846,43.386 128.617,62.231 130.037,60.516 105.573,32.839 131.661,58.992 133.459,57.686 116.649,24.793 
					135.413,56.608 137.483,55.792 139.643,55.241 136.116,18.467 141.848,54.954 				"/>
			</defs>
			<clipPath id="SVGID_4_">
				<use xlink:href="#SVGID_3_"  overflow="visible"/>
			</clipPath>
			<defs>
				<filter id="Adobe_OpacityMaskFilter_1_" filterUnits="userSpaceOnUse" x="78.734" y="10.495" width="129" height="123.779">
					<feColorMatrix  type="matrix" values="1 0 0 0 0  0 1 0 0 0  0 0 1 0 0  0 0 0 1 0"/>
				</filter>
			</defs>
			<mask maskUnits="userSpaceOnUse" x="78.734" y="10.495" width="129" height="123.779" id="SVGID_5_">
				<g filter="url(#Adobe_OpacityMaskFilter_1_)">
					
						<radialGradient id="SVGID_6_" cx="283.7461" cy="3173.1279" r="27.9506" gradientTransform="matrix(2.0467 -0.3989 0.4685 1.9743 -1924.1222 -6079.1392)" gradientUnits="userSpaceOnUse">
						<stop  offset="0.1907" style="stop-color:#FFFFFF"/>
						<stop  offset="0.4124" style="stop-color:#BDBDBD"/>
						<stop  offset="0.933" style="stop-color:#010101"/>
					</radialGradient>
					<path clip-path="url(#SVGID_4_)" fill="url(#SVGID_6_)" d="M202.707,60.794c7.521,31.689-13.009,62.58-45.853,68.972
						c-32.844,6.4-65.576-14.116-73.097-45.802c-7.521-31.689,13.019-62.553,45.862-68.966
						C162.465,8.605,195.187,29.109,202.707,60.794z"/>
				</g>
			</mask>
			<path clip-path="url(#SVGID_4_)" mask="url(#SVGID_5_)" fill="#FFFFFF" d="M206.095,60.134
				c7.945,33.491-13.748,66.141-48.468,72.904c-34.711,6.766-69.309-14.924-77.251-48.414
				c-7.951-33.491,13.751-66.118,48.463-72.896C163.559,4.976,198.148,26.643,206.095,60.134z"/>
		</g>
		<polygon fill="#FFFFFF" points="152.446,59.704 153.997,60.998 175.421,42.64 155.369,62.475 183.09,43.716 156.55,64.107 
			157.515,65.879 186.32,55.666 158.253,67.759 158.747,69.713 186.806,67.264 158.999,71.715 192.447,72.834 158.99,73.734 
			158.73,75.728 184.014,83.387 158.218,77.68 184.635,89.313 157.471,79.557 156.498,81.319 182.898,101.889 155.304,82.943 
			153.918,84.416 171.083,106.853 152.355,85.696 169.338,114.542 150.653,86.773 148.821,87.624 156.333,114.338 146.906,88.241 
			144.922,88.61 145.903,122.066 142.907,88.731 140.892,88.597 134.588,115.848 138.912,88.211 127.515,119.684 136.997,87.581 
			135.179,86.717 119.842,108.889 133.476,85.636 131.931,84.341 108.817,104.594 130.549,82.865 129.368,81.228 103.767,94.055 
			128.404,79.461 127.666,77.581 94.991,84.814 127.171,75.623 126.928,73.63 96.863,72.488 126.932,71.606 127.197,69.604 
			101.283,61.867 127.701,67.655 128.448,65.779 99.676,48.688 129.429,64.016 130.618,62.392 110.588,42.066 132.008,60.925 
			111.539,34.433 133.562,59.648 135.27,58.567 124.049,32.101 137.097,57.715 127.822,25.557 139.017,57.099 141.001,56.73 
			143.012,56.608 146.233,23.291 145.026,56.739 151.461,28.962 147.006,57.125 148.921,57.759 163.072,30.33 150.745,58.619 		"/>
		<g>
			<polygon opacity="0" fill="#F4CE43" points="185.994,92.749 177.893,91.68 183.15,97.929 175.251,95.848 182.447,104.698 
				172.112,99.657 175.647,107.021 168.513,103.039 171.101,110.79 164.522,105.953 166.121,113.965 160.198,108.327 
				161.86,119.345 155.607,110.151 155.161,118.311 150.827,111.384 149.363,119.422 145.929,112.01 143.472,119.804 
				140.987,112.019 137.314,122.505 136.09,111.398 131.77,118.341 131.305,110.178 127.084,114.434 126.715,108.366 
				120.806,114.008 122.387,105.996 115.812,110.852 118.392,103.097 108.125,110.771 114.787,99.718 107.215,102.787 
				111.635,95.917 103.741,98.015 108.987,91.749 100.888,92.84 106.876,87.289 95.36,88.336 105.347,82.592 97.236,81.636 
				104.419,77.741 96.49,75.778 104.102,72.818 96.481,69.874 104.41,67.885 91.418,62.809 105.326,63.035 98.678,58.289 
				106.846,58.341 103.81,54.177 108.943,53.868 103.684,47.62 111.587,49.7 107.149,42.84 114.727,45.892 107.188,34.937 
				118.322,42.505 115.733,34.754 122.317,39.6 120.719,31.593 126.642,37.216 126.807,31.554 131.23,35.393 131.679,27.238 
				136.012,34.164 137.479,26.122 140.91,33.539 142.854,21.232 145.847,33.53 149.264,26.109 150.745,34.146 154.21,29.587 
				155.525,35.371 160.684,29.031 160.119,37.182 166.029,31.537 164.453,39.557 171.022,34.693 168.447,42.457 177.488,36.344 
				172.052,45.831 179.625,42.761 175.204,49.63 180.584,49.296 177.853,53.799 185.951,52.709 179.963,58.263 188.131,58.197 
				181.491,62.957 192.973,63.751 182.421,67.807 190.35,69.774 182.738,72.73 192.104,75.771 182.43,77.66 189.624,81.536 
				181.514,82.509 188.16,87.26 179.989,87.208 			"/>
			<polygon opacity="0.1111" fill="#F5CF3E" points="185.324,92.436 177.351,91.382 182.526,97.533 174.75,95.485 181.57,104.007 
				171.66,99.235 175.141,106.483 168.118,102.562 170.666,110.192 164.19,105.431 165.764,113.316 159.935,107.769 
				161.391,118.115 155.416,109.564 154.977,117.595 150.71,110.777 149.27,118.688 145.89,111.393 143.47,119.064 141.026,111.401 
				137.435,121.431 136.206,110.792 131.953,117.623 131.495,109.59 127.252,113.978 126.978,107.807 121.161,113.359 
				122.718,105.474 116.247,110.253 118.785,102.62 108.979,109.822 115.236,99.294 107.784,102.315 112.135,95.553 104.364,97.618 
				109.528,91.45 101.556,92.524 107.451,87.061 96.436,87.997 105.945,82.438 97.962,81.496 105.031,77.663 97.227,75.731 
				104.72,72.817 97.219,69.919 105.022,67.962 92.788,63.08 105.924,63.188 99.381,58.517 107.42,58.567 104.149,54.337 
				109.485,54.166 104.309,48.015 112.087,50.062 107.72,43.31 115.178,46.314 108.14,35.874 118.717,42.981 116.169,35.352 
				122.649,40.122 121.075,32.24 126.905,37.775 126.997,31.965 131.422,35.98 131.862,27.953 136.128,34.771 137.572,26.855 
				140.95,34.155 142.912,22.473 145.809,34.147 149.172,26.843 150.63,34.753 154.122,30.04 155.335,35.959 160.412,29.719 
				159.856,37.741 165.674,32.186 164.122,40.079 170.588,35.292 168.054,42.933 176.771,37.118 171.601,46.254 179.056,43.233 
				174.704,49.994 180.239,49.498 177.311,54.097 185.282,53.024 179.388,58.491 187.428,58.426 180.893,63.11 191.873,63.909 
				181.808,67.884 189.612,69.821 182.12,72.731 191.172,75.715 181.816,77.583 188.897,81.398 180.914,82.355 187.268,86.982 
				179.415,86.98 			"/>
			<polygon opacity="0.2222" fill="#F6D039" points="184.654,92.121 176.809,91.086 181.901,97.139 174.249,95.122 180.692,103.315 
				171.209,98.812 174.634,105.945 167.724,102.088 170.231,109.596 163.858,104.909 165.407,112.668 159.671,107.21 
				160.921,116.886 155.225,108.978 154.793,116.88 150.594,110.17 149.176,117.955 145.85,110.775 143.469,118.325 
				141.064,110.783 137.556,120.355 136.321,110.186 132.136,116.907 131.687,109.003 127.42,113.521 127.241,107.247 
				121.516,112.711 123.049,104.951 116.681,109.653 119.178,102.144 109.834,108.874 115.687,98.87 108.354,101.844 
				112.635,95.189 104.988,97.222 110.069,91.152 102.225,92.21 108.026,86.833 97.51,87.658 106.543,82.283 98.688,81.357 
				105.645,77.585 97.964,75.685 105.337,72.817 97.958,69.966 105.635,68.039 94.158,63.351 106.523,63.342 100.084,58.744 
				107.996,58.794 104.489,54.499 110.027,54.463 104.934,48.411 112.588,50.425 108.29,43.78 115.63,46.736 109.091,36.812 
				119.111,43.458 116.604,35.95 122.981,40.644 121.433,32.887 127.168,38.335 127.187,32.376 131.614,36.568 132.048,28.669 
				136.244,35.377 137.666,27.589 140.989,34.771 142.97,23.714 145.771,34.764 149.081,27.578 150.515,35.36 154.034,30.492 
				155.146,36.546 160.142,30.407 159.594,38.3 165.319,32.834 163.791,40.602 170.154,35.892 167.66,43.409 176.053,37.893 
				171.15,46.678 178.486,43.705 174.205,50.357 179.895,49.699 176.77,54.396 184.613,53.339 178.812,58.719 186.726,58.655 
				180.294,63.265 190.772,64.066 181.194,67.962 188.875,69.868 181.502,72.732 190.24,75.658 181.203,77.506 188.171,81.262 
				180.315,82.203 186.375,86.705 178.84,86.754 			"/>
			<polygon opacity="0.3333" fill="#F7D034" points="183.985,91.808 176.267,90.788 181.277,96.743 173.749,94.76 179.815,102.624 
				170.758,98.391 174.128,105.408 167.329,101.611 169.797,108.998 163.527,104.387 165.05,112.021 159.408,106.651 
				160.451,115.656 155.033,108.39 154.608,116.164 150.477,109.563 149.083,117.222 145.811,110.159 143.467,117.586 
				141.104,110.166 137.677,119.281 136.438,109.579 132.319,116.189 131.878,108.415 127.588,113.065 127.504,106.688 
				121.871,112.062 123.38,104.429 117.115,109.055 119.571,101.666 110.688,107.925 116.137,98.447 108.923,101.372 
				113.135,94.826 105.61,96.825 110.61,90.854 102.893,91.895 108.601,86.605 98.585,87.32 107.142,82.129 99.414,81.218 
				106.257,77.507 98.701,75.637 105.956,72.817 98.695,70.011 106.248,68.117 95.529,63.622 107.122,63.497 100.788,58.972 
				108.571,59.021 104.829,54.659 110.57,54.761 105.558,48.806 113.088,50.787 108.86,44.25 116.082,47.158 110.043,37.749 
				119.506,43.934 117.039,36.548 123.313,41.165 121.79,33.534 127.432,38.894 127.377,32.787 131.806,37.155 132.231,29.384 
				136.36,35.984 137.759,28.322 141.029,35.388 143.028,24.955 145.732,35.381 148.989,28.312 150.399,35.967 153.947,30.945 
				154.955,37.134 159.87,31.095 159.332,38.859 164.964,33.483 163.46,41.125 169.72,36.491 167.267,43.886 175.335,38.667 
				170.7,47.102 177.917,44.177 173.705,50.721 179.551,49.9 176.229,54.693 183.943,53.654 178.237,58.948 186.022,58.883 
				179.695,63.418 189.673,64.223 180.581,68.04 188.138,69.916 180.884,72.733 189.308,75.603 180.59,77.43 187.444,81.124 
				179.716,82.051 185.483,86.428 178.266,86.526 			"/>
			<polygon opacity="0.4444" fill="#F9D12E" points="183.315,91.494 175.725,90.491 180.653,96.349 173.248,94.397 178.938,101.933 
				170.307,97.969 173.621,104.87 166.934,101.136 169.362,108.401 163.194,103.864 164.692,111.372 159.144,106.093 
				159.98,114.427 154.842,107.803 154.424,115.448 150.36,108.956 148.989,116.489 145.771,109.542 143.466,116.846 
				141.142,109.548 137.797,118.207 136.553,108.973 132.503,115.473 132.069,107.827 127.756,112.609 127.767,106.128 
				122.226,111.415 123.711,103.905 117.549,108.456 119.964,101.189 111.542,106.977 116.586,98.023 109.492,100.9 113.635,94.462 
				106.234,96.429 111.152,90.555 103.561,91.579 109.176,86.377 99.66,86.981 107.74,81.974 100.139,81.078 106.87,77.429 
				99.438,75.59 106.574,72.816 99.434,70.057 106.86,68.194 96.899,63.893 107.721,63.65 101.492,59.2 109.146,59.248 
				105.168,54.819 111.112,55.059 106.183,49.201 113.589,51.149 109.43,44.721 116.533,47.581 110.994,38.686 119.9,44.41 
				117.475,37.146 123.645,41.687 122.146,34.181 127.695,39.453 127.567,33.198 131.997,37.743 132.416,30.1 136.477,36.592 
				137.852,29.055 141.068,36.005 143.086,26.196 145.694,35.998 148.897,29.046 150.284,36.574 153.859,31.397 154.766,37.722 
				159.599,31.783 159.069,39.418 164.609,34.132 163.129,41.647 169.285,37.09 166.873,44.362 174.616,39.441 170.249,47.525 
				177.348,44.648 173.205,51.084 179.206,50.101 175.688,54.991 183.274,53.969 177.662,59.176 185.319,59.112 179.097,63.572 
				188.572,64.38 179.969,68.117 187.401,69.963 180.267,72.734 188.376,75.547 179.978,77.353 186.718,80.986 179.116,81.897 
				184.591,86.15 177.691,86.299 			"/>
			<polygon opacity="0.5556" fill="#FAD228" points="182.646,91.18 175.184,90.193 180.028,95.953 172.748,94.034 178.062,101.241 
				169.854,97.546 173.114,104.332 166.54,100.66 168.928,107.804 162.863,103.343 164.336,110.725 158.881,105.535 
				159.511,113.198 154.649,107.216 154.239,114.733 150.243,108.35 148.896,115.755 145.731,108.925 143.464,116.106 
				141.181,108.931 137.917,117.132 136.669,108.366 132.687,114.756 132.26,107.24 127.924,112.153 128.029,105.567 
				122.581,110.766 124.042,103.384 117.983,107.856 120.357,100.713 112.396,106.027 117.036,97.6 110.062,100.429 114.134,94.099 
				106.857,96.032 111.693,90.257 104.229,91.265 109.751,86.149 100.735,86.643 108.338,81.819 100.865,80.938 107.482,77.351 
				100.175,75.542 107.192,72.815 100.171,70.103 107.473,68.271 98.269,64.165 108.32,63.804 102.195,59.427 109.721,59.475 
				105.508,54.98 111.654,55.357 106.808,49.596 114.089,51.512 110,45.191 116.984,48.002 111.946,39.624 120.295,44.886 
				117.909,37.743 123.977,42.208 122.504,34.828 127.958,40.012 127.757,33.609 132.188,38.331 132.6,30.815 136.593,37.198 
				137.945,29.789 141.108,36.622 143.145,27.437 145.656,36.615 148.806,29.781 150.169,37.181 153.771,31.85 154.575,38.309 
				159.328,32.471 158.807,39.978 164.254,34.781 162.798,42.169 168.852,37.689 166.479,44.838 173.898,40.215 169.799,47.949 
				176.778,45.121 172.705,51.447 178.861,50.302 175.146,55.29 182.605,54.284 177.088,59.404 184.616,59.34 178.498,63.726 
				187.473,64.538 179.355,68.195 186.663,70.01 179.647,72.735 187.443,75.49 179.364,77.275 185.991,80.85 178.518,81.744 
				183.698,85.873 177.116,86.071 			"/>
			<polygon opacity="0.6667" fill="#FBD320" points="181.976,90.866 174.642,89.896 179.404,95.559 172.247,93.672 177.185,100.55 
				169.403,97.124 172.607,103.794 166.145,100.185 168.492,107.206 162.531,102.82 163.979,110.076 158.617,104.977 
				159.041,111.969 154.458,106.629 154.055,114.018 150.127,107.742 148.802,115.022 145.691,108.308 143.463,115.367 
				141.22,108.313 138.038,116.058 136.784,107.76 132.87,114.039 132.451,106.652 128.092,111.697 128.292,105.008 
				122.936,110.118 124.372,102.86 118.417,107.258 120.75,100.236 113.25,105.078 117.485,97.176 110.631,99.956 114.634,93.734 
				107.48,95.636 112.234,89.958 104.897,90.949 110.326,85.921 101.81,86.304 108.937,81.665 101.59,80.799 108.095,77.272 
				100.913,75.495 107.81,72.815 100.91,70.149 108.086,68.348 99.639,64.436 108.918,63.958 102.898,59.655 110.296,59.701 
				105.848,55.141 112.197,55.654 107.433,49.991 114.59,51.874 110.57,45.662 117.437,48.425 112.897,40.561 120.689,45.362 
				118.345,38.341 124.309,42.729 122.86,35.475 128.222,40.571 127.947,34.021 132.38,38.918 132.784,31.531 136.71,37.805 
				138.038,30.522 141.147,37.238 143.202,28.678 145.618,37.232 148.714,30.515 150.053,37.788 153.684,32.302 154.385,38.897 
				159.057,33.159 158.544,40.537 163.898,35.43 162.468,42.692 168.417,38.289 166.085,45.314 173.181,40.99 169.348,48.373 
				176.209,45.592 172.205,51.811 178.517,50.503 174.604,55.588 181.937,54.6 176.513,59.632 183.913,59.569 177.899,63.88 
				186.372,64.695 178.742,68.272 185.927,70.057 179.03,72.736 186.512,75.435 178.751,77.198 185.265,80.712 177.918,81.592 
				182.806,85.596 176.542,85.844 			"/>
			<polygon opacity="0.7778" fill="#FCD318" points="181.307,90.553 174.1,89.6 178.78,95.163 171.746,93.31 176.307,99.858 
				168.952,96.702 172.102,103.256 165.75,99.708 168.058,106.608 162.199,102.298 163.621,109.428 158.354,104.418 
				158.571,110.739 154.267,106.041 153.871,113.302 150.01,107.136 148.709,114.289 145.652,107.691 143.461,114.628 
				141.259,107.696 138.158,114.983 136.9,107.153 133.053,113.321 132.643,106.064 128.26,111.241 128.556,104.448 123.291,109.47 
				124.703,102.338 118.852,106.659 121.144,99.759 114.104,104.129 117.936,96.753 111.2,99.484 115.134,93.371 108.104,95.239 
				112.775,89.659 105.565,90.634 110.9,85.693 102.885,85.966 109.535,81.511 102.316,80.66 108.708,77.194 101.65,75.448 
				108.428,72.814 101.648,70.194 108.699,68.426 101.009,64.707 109.518,64.112 103.602,59.883 110.871,59.928 106.188,55.302 
				112.739,55.952 108.057,50.386 115.09,52.236 111.141,46.132 117.888,48.847 113.849,41.499 121.084,45.838 118.78,38.939 
				124.641,43.251 123.218,36.122 128.485,41.131 128.138,34.432 132.572,39.506 132.969,32.246 136.826,38.413 138.131,31.255 
				141.188,37.855 143.26,29.919 145.58,37.85 148.623,31.249 149.938,38.395 153.596,32.754 154.194,39.484 158.785,33.847 
				158.282,41.096 163.543,36.079 162.137,43.214 167.982,38.888 165.691,45.791 172.463,41.764 168.897,48.796 175.64,46.064 
				171.706,52.174 178.173,50.705 174.063,55.886 181.267,54.915 175.938,59.86 183.211,59.798 177.301,64.034 185.272,64.852 
				178.129,68.351 185.189,70.104 178.412,72.737 185.579,75.379 178.138,77.122 184.538,80.574 177.318,81.438 181.914,85.318 
				175.968,85.617 			"/>
			<polygon opacity="0.8889" fill="#FDD40D" points="180.637,90.238 173.558,89.302 178.155,94.769 171.246,92.946 175.43,99.167 
				168.5,96.279 171.595,102.718 165.355,99.232 167.623,106.012 161.867,101.776 163.265,108.78 158.09,103.859 158.102,109.51 
				154.075,105.454 153.687,112.587 149.894,106.528 148.615,113.556 145.612,107.074 143.46,113.888 141.297,107.078 
				138.279,113.908 137.016,106.547 133.236,112.604 132.833,105.478 128.428,110.785 128.818,103.889 123.646,108.821 
				125.034,101.815 119.285,106.06 121.536,99.282 114.958,103.181 118.385,96.329 111.77,99.013 115.634,93.007 108.727,94.843 
				113.317,89.361 106.233,90.319 111.476,85.465 103.96,85.627 110.133,81.356 103.042,80.521 109.321,77.116 102.387,75.4 
				109.046,72.814 102.386,70.24 109.312,68.503 102.379,64.979 110.116,64.266 104.305,60.111 111.446,60.155 106.527,55.462 
				113.282,56.25 108.682,50.781 115.591,52.599 111.711,46.603 118.34,49.269 114.801,42.436 121.479,46.315 119.215,39.537 
				124.972,43.773 123.574,36.769 128.748,41.69 128.327,34.843 132.764,40.094 133.152,32.962 136.942,39.02 138.225,31.989 
				141.227,38.471 143.318,31.16 145.542,38.466 148.531,31.983 149.822,39.002 153.508,33.207 154.005,40.072 158.515,34.535 
				158.02,41.655 163.188,36.728 161.806,43.737 167.549,39.487 165.298,46.267 171.745,42.539 168.446,49.22 175.07,46.536 
				171.206,52.537 177.828,50.906 173.521,56.184 180.598,55.23 175.362,60.089 182.508,60.027 176.702,64.188 184.172,65.009 
				177.516,68.428 184.452,70.152 177.794,72.738 184.647,75.322 177.524,77.045 183.812,80.438 176.72,81.286 181.021,85.041 
				175.393,85.39 			"/>
			<polygon fill="#FED500" points="179.967,89.925 173.016,89.005 177.531,94.373 170.745,92.584 174.553,98.476 168.049,95.857 
				171.088,102.18 164.961,98.757 167.188,105.414 161.535,101.254 162.907,108.132 157.826,103.301 157.632,108.28 
				153.884,104.867 153.502,111.871 149.776,105.922 148.521,112.822 145.573,106.457 143.458,113.148 141.336,106.461 
				138.399,112.834 137.132,105.94 133.42,111.888 133.024,104.89 128.596,110.329 129.081,103.329 124.001,108.173 
				125.365,101.293 119.72,105.461 121.93,98.806 115.812,102.231 118.835,95.905 112.339,98.541 116.134,92.644 109.351,94.446 
				113.858,89.062 106.901,90.004 112.051,85.237 105.035,85.288 110.731,81.202 103.767,80.381 109.934,77.038 103.124,75.354 
				109.664,72.813 103.124,70.286 109.924,68.58 103.75,65.25 110.715,64.42 105.008,60.338 112.021,60.381 106.867,55.623 
				113.824,56.547 109.307,51.176 116.091,52.961 112.281,47.073 118.791,49.691 115.752,43.374 121.873,46.791 119.65,40.134 
				125.304,44.294 123.932,37.416 129.012,42.249 128.518,35.254 132.955,40.681 133.337,33.677 137.059,39.626 138.317,32.722 
				141.267,39.088 143.376,32.401 145.504,39.083 148.439,32.718 149.707,39.609 153.42,33.66 153.814,40.66 158.243,35.223 
				157.757,42.214 162.833,37.377 161.475,44.259 167.114,40.086 164.904,46.743 171.027,43.313 167.996,49.644 174.501,47.008 
				170.706,52.9 177.483,51.107 172.98,56.482 179.929,55.545 174.787,60.317 181.805,60.255 176.104,64.342 183.072,65.167 
				176.902,68.506 183.715,70.199 177.176,72.739 183.715,75.267 176.911,76.968 183.085,80.3 176.12,81.133 180.129,84.764 
				174.818,85.162 			"/>
		</g>
		<radialGradient id="SVGID_7_" cx="118.1611" cy="51.5908" r="69.4427" gradientUnits="userSpaceOnUse">
			<stop  offset="0.0979" style="stop-color:#FFFFFF"/>
			<stop  offset="0.2938" style="stop-color:#FCEF6A"/>
			<stop  offset="0.5412" style="stop-color:#FBC834"/>
			<stop  offset="1" style="stop-color:#F79127"/>
		</radialGradient>
		<circle fill="url(#SVGID_7_)" cx="143.582" cy="72.669" r="39.681"/>
		<path opacity="0.25" fill="#FFFFFF" d="M121.891,101.646c1.39-9.947,6.249-18.828,12.376-26.622
			c9.326-11.85,22.084-20.595,35.604-27.594c-6.643-6.961-16.005-11.312-26.392-11.312c-20.146,0-36.482,16.335-36.482,36.479
			c0,12.049,5.845,22.727,14.85,29.375C121.86,101.858,121.873,101.754,121.891,101.646z"/>
		<g>
			<g>
				<g opacity="0">
					<path fill="#FEE938" d="M143.58,36.682c19.844,0,35.983,16.144,35.983,35.987c0,19.835-16.14,35.985-35.983,35.985
						c-19.839,0-35.983-16.149-35.983-35.985C107.597,52.826,123.741,36.682,143.58,36.682 M143.58,34.103
						c-21.298,0-38.568,17.269-38.568,38.566c0,21.299,17.27,38.563,38.568,38.563s38.567-17.264,38.567-38.563
						C182.147,51.372,164.878,34.103,143.58,34.103L143.58,34.103z"/>
				</g>
			</g>
			<g opacity="0.25">
				<path fill="#FEE938" d="M143.58,35.892c20.282,0,36.778,16.5,36.778,36.778c0,20.278-16.496,36.778-36.778,36.778
					c-20.281,0-36.783-16.5-36.783-36.778C106.797,52.392,123.299,35.892,143.58,35.892 M143.58,33.825
					c-21.455,0-38.849,17.386-38.849,38.844c0,21.451,17.394,38.845,38.849,38.845s38.85-17.395,38.85-38.845
					C182.43,51.211,165.035,33.825,143.58,33.825L143.58,33.825z"/>
			</g>
			<g opacity="0.5">
				<path fill="#FEE938" d="M143.58,35.097c20.717,0,37.572,16.856,37.572,37.572c0,20.717-16.855,37.574-37.572,37.574
					c-20.716,0-37.572-16.856-37.572-37.574C106.008,51.954,122.864,35.097,143.58,35.097 M143.58,33.547
					c-21.606,0-39.123,17.516-39.123,39.122c0,21.608,17.516,39.119,39.123,39.119c21.611,0,39.127-17.511,39.127-39.119
					C182.707,51.063,165.191,33.547,143.58,33.547L143.58,33.547z"/>
			</g>
			<g opacity="0.75">
				<path fill="#FEE938" d="M143.58,34.298c21.155,0,38.372,17.212,38.372,38.371c0,21.156-17.217,38.368-38.372,38.368
					c-21.159,0-38.368-17.212-38.368-38.368C105.212,51.511,122.421,34.298,143.58,34.298 M143.58,33.269
					c-21.759,0-39.4,17.638-39.4,39.4c0,21.758,17.641,39.402,39.4,39.402s39.4-17.644,39.4-39.402
					C182.98,50.907,165.339,33.269,143.58,33.269L143.58,33.269z"/>
			</g>
			<g>
				<g>
					<path fill="#FEE938" d="M143.58,33.508c21.594,0,39.162,17.568,39.162,39.162c0,21.594-17.568,39.159-39.162,39.159
						s-39.161-17.564-39.161-39.159C104.419,51.076,121.986,33.508,143.58,33.508 M143.58,32.991
						c-21.915,0-39.679,17.764-39.679,39.678c0,21.912,17.764,39.679,39.679,39.679s39.683-17.768,39.683-39.679
						C183.263,50.755,165.495,32.991,143.58,32.991L143.58,32.991z"/>
				</g>
			</g>
		</g>
		<path opacity="0.5" fill="#FFFFFF" d="M107.667,73.924c0-20.529,16.648-37.172,37.177-37.172c20.282,0,36.761,16.24,37.16,36.426
			c0-0.17,0.013-0.339,0.013-0.508c0-21.232-17.212-38.44-38.44-38.44c-21.229,0-38.438,17.208-38.438,38.44
			c0,21.225,17.208,38.437,38.438,38.437c0.208,0,0.417-0.013,0.625-0.017C123.967,110.741,107.667,94.242,107.667,73.924z"/>
	</g>
	
		<linearGradient id="SVGID_8_" gradientUnits="userSpaceOnUse" x1="-39.0527" y1="181.6562" x2="97.6792" y2="181.6562" gradientTransform="matrix(-4.371139e-08 -1 1 -4.371139e-08 -41.1064 82.605)">
		<stop  offset="0" style="stop-color:#FFFFFF"/>
		<stop  offset="1" style="stop-color:#FFFFFF;stop-opacity:0"/>
	</linearGradient>
	<ellipse fill="url(#SVGID_8_)" cx="140.549" cy="53.292" rx="83.926" ry="68.366"/>
	
		<radialGradient id="SVGID_9_" cx="128.0527" cy="54.4141" r="83.9238" gradientTransform="matrix(1 0 0 0.7366 0 11.5108)" gradientUnits="userSpaceOnUse">
		<stop  offset="0" style="stop-color:#FFFFFF"/>
		<stop  offset="1" style="stop-color:#FFFFFF;stop-opacity:0"/>
	</radialGradient>
	<path opacity="0.43" fill="url(#SVGID_9_)" d="M211.978,51.589c0,34.146-37.573,61.814-83.925,61.814
		c-46.353,0-83.926-27.668-83.926-61.814c0-34.136,37.573-61.813,83.926-61.813C174.404-10.224,211.978,17.453,211.978,51.589z"/>
</g>
</svg>
