<?xml version="1.0" encoding="utf-8"?>
<!-- Generator: Adobe Illustrator 14.0.0, SVG Export Plug-In . SVG Version: 6.00 Build 43363)  -->
<!DOCTYPE svg PUBLIC "-//W3C//DTD SVG 1.1//EN" "http://www.w3.org/Graphics/SVG/1.1/DTD/svg11.dtd" [
	<!ENTITY ns_extend "http://ns.adobe.com/Extensibility/1.0/">
	<!ENTITY ns_ai "http://ns.adobe.com/AdobeIllustrator/10.0/">
	<!ENTITY ns_graphs "http://ns.adobe.com/Graphs/1.0/">
	<!ENTITY ns_vars "http://ns.adobe.com/Variables/1.0/">
	<!ENTITY ns_imrep "http://ns.adobe.com/ImageReplacement/1.0/">
	<!ENTITY ns_sfw "http://ns.adobe.com/SaveForWeb/1.0/">
	<!ENTITY ns_custom "http://ns.adobe.com/GenericCustomNamespace/1.0/">
	<!ENTITY ns_adobe_xpath "http://ns.adobe.com/XPath/1.0/">
]>
<svg version="1.1" id="Layer_1" xmlns:x="&ns_extend;" xmlns:i="&ns_ai;" xmlns:graph="&ns_graphs;"
	 xmlns="http://www.w3.org/2000/svg" xmlns:xlink="http://www.w3.org/1999/xlink" x="0px" y="0px" width="216px" height="144px"
	 viewBox="0 0 216 144" enable-background="new 0 0 216 144" xml:space="preserve">
<metadata>
	<sfw  xmlns="&ns_sfw;">
		<slices></slices>
		<sliceSourceBounds  height="16383" width="16383" x="-8083" y="-8120" bottomLeftOrigin="true"></sliceSourceBounds>
	</sfw>
</metadata>
<g>
	<g id="layer1_1_" inkscape:groupmode="layer" inkscape:label="moon">
		<g id="g2885_1_" enable-background="new    ">
			<path id="path2893_1_" sodipodi:nodetypes="cssss" fill="#BFBEBE" d="M92.992,72.624c-0.131-27.565,22.312-52.396,52.396-52.396
				c31.521,0,52.59,28.089,52.396,52.396c-0.205,25.828-21.304,50.345-48.812,51.718C115.669,126,93.105,98.024,92.992,72.624z"/>
			<path id="path2891_1_" fill="#A09F9D" d="M136.716,123.767c-3.122,0.364-3.641-2.086-5.06-1.248
				c-1.025-1.248-7.726-1.966-5.23-2.769c2.906,0.678-0.125-2.502-1.562-0.12c0.046-0.37,0.992-4.444,0.154-2.131
				c-2.068,1.02-3.709-0.639-5.743-0.735c-1.932-1.487,0.308-2.592,0.621-1.492c-0.365-1.772-4-1.926-2.764,0.017
				c0.53,1.487-3.253-1.424-2.666-1.903c1.076,0.331,3.247,2.08,1.418-0.404c-1.088-0.86-5.122-1.259-1.526-1.236
				c1.783,0.034,5.675,3.852,5.549,1.544c-3.139-0.871-2.962-2.895-0.467-2.758c-1.487,1.465,1.049,2.513,1.67,2.239
				c1.35-0.792,3.327-1.008,3.754-1.39c0.068-2.165-2.449-1.778-3.908-2.438c-1.265-0.992-3.556-1.881-5.276-2.587
				c-1.55-0.269-3.862,0.832-4.421-1.214c-1.642-0.564-1.642-1.015-2.94-1.156c-1.367-2.576,0.484,2.256-0.541,1.652
				c-2.16,0.125,0.746,2.791-1.897,0.433c1.595-0.376-0.895-2.08-1.014-3.02c-2.764-2.404,3.048,1.116,0.923-0.524
				c-1.846-0.872-1.151-3.259,0.576-1.55c2.547,2.541,2.319-2.028,0.131-1.407c-2.541,0.563-1.641-2.912-2.786-1.636
				c1.134,1.396-1.362,2.679-0.667,0.342c0.912-0.752,0-4.136-1.083-2.746c1.555,2.245-0.439,3.807-1.407,1.146
				c-1.669-2.593-0.331-3.664,0.963-2.74c-2.074-1.186-2.205-2.313-2.86-5.311c-0.479-2.844-2.211-3.727-2.45-2.724
				c0.729-3.06-2.074-2.735-2.359-5.487c-0.479-3.128-0.872-6.387-0.843-9.566c0.684-9.669,3.441-19.281,9.014-27.292
				c0.65-0.444,1.584,0.729,2.838-1.664c2.022-1.345,3.151-3.886,5.749-4.644c-0.519-0.599,0.108-2.211,1.407-1.943
				c0.695-2.672,4.342-2.371,5.743-3.236c1.305-0.701,2.153-2.769,4.74-2.86c3.055-0.559,5.459-1.219,6.923-2.883
				c0.713-2.564,2.342-0.193,3.493-0.188c0.29-0.667-0.747-2.182,0.843-3.271c0.747-1.418,5.242-1.783,7.111-1.236
				c0.569,0.877,2.547-2.131,2.724-0.057c-2.564,0.411-2.234,2.205,0.278,1.299c2.394,1.499,0.872-0.137,3.368,0.809
				c1.789,0.49,3.35-1.128,4.797,0.068c1.191-0.593-2.484-1.721-3.669-1.083c-1.652-0.456,2.837-1.253-0.319-1.208
				c-0.593,0.433-3.077-1.516-0.945-0.809c3.783,0.143,7.601-0.011,11.207,1.305c4.461,0.895,8.587,2.935,12.632,4.94
				c7.658,4.433,14.381,10.546,18.984,18.13c3.647,6.097,6.223,12.865,7.413,19.891c0.53,4.735,0.086,9.578,0.233,14.347
				c-1.293,6.615-3.104,13.19-6.58,19.008c-1.67,3.396-4.177,6.33-6.553,9.247c-2.553,2.724-5.476,5.008-8.256,7.47
				c-1.105-0.268-4.473,3.094-2.444,0.256c2.438-2.312-2.673-0.045-1.282,1.835c-1.743,1.162-0.211-2.979,0.535-3.703
				c-0.877-0.114-2.427,2.997-4.136,1.003c-1.698,0.809-1.539-0.593-0.342-1.869c-1.847-2.774,2.131,1.128,1.641-1.459
				c-1.772-2.017-2.022,1.071-3.681,0.82c-1.847,0.394-5.128-0.814-2.609-1.367c0.484,1.031,1.11-0.969,1.555-1.994
				c-1.315,1.988-1.737,0.348-1.657-0.764c1.247,1.037,4.136-1.498,2.757-1.942c-1.977,1.122-3.054,1.715-3.054-0.462
				c0.479-1.578-1.196,0.541,0.239-1.777c-0.479-2.12,0.194-1.829,0.034-2.951c-1.971,2.005-2.324-0.593-0.843-1.431
				c1.401,0.233,2.638-4.883,2.336-4.313c1.618,1.129,3.521-2.552,2.849-3.715c-1.972-0.957,1.584-1.612,1.67-3.441
				c-1.67,0.114-2.673,0.49-2.832,2.416c-1.214,2.097,1.447,1.504-1.071,2.609c0.559,2.319-2.256,1.049-2.712,1.892
				c-0.438,2.188-5.128,5.652-4.251,2.884c2.667,1.07-0.849-1.379,1.06-2.382c-1.094-1.624-1.749,2.358-1.526-0.615
				c-1.311-1.544,2.655-2.581,2.587-4.639c1.994-1.516-1.578-0.74-2.479-0.028c-0.291-2.216-1.345,0.188-1.652,1.26
				c-1.505,1.47,3.436,0.057,0.809,1.612c-0.866,3.14-1.293-0.325-3.23,0.348c-1.606,0.563-0.074-4.239-2.199-1.847
				c-1.311,1.266-0.707,2.895-2.051,4.599c-0.548-0.576-1.972-1.954-1.613,0.239c-0.621,0.615-1.589,2.034-2.262,3.561
				c-1.185,1.481-1.391,2.348-2.006,1.471c0.103,1.937,2.667,1.663-0.501,1.355c-2.53-0.718,2.279,3.533-1.664,1.037
				c-2.079-1.504-2.849-1.242-2.034,0c-1.578-1.464-4.393-0.547-1.629,1.025c-0.062,2.126,1.259,0.752,2.604,1.061
				c3.339,1.315-1.624,1.937-2.165,1.458c0.604,1.652,2.86,1.06,0.359,1.778c-0.006,2.923,1.687-1.095,2.871,0.957
				c-3.18,0.444,0.746,3.737-0.006,1.447c0.468-0.456,2.78,3.486,4.034,1.834c0.604,0.958,2.177-1.498,1.584,1.493
				c-2.632,1.345-0.798,1.504,0.422,2.798c-0.57,1.299,1.646,2.854-0.263,4.29c-1.857,0.433-2.541-2.678-3.942-0.649
				c-1.572,1.737-4.137,0.569-6.188,0.889c-0.359,0.661,4.871,2.519,0.9,2.08C138.129,121.938,138.038,124.382,136.716,123.767
				L136.716,123.767z M170.925,86.384c0.251-1.886,2.49-0.906,1.801-1.92c-1.47-0.217-0.125-1.083,0.296-1.835
				c0.456-4.193-2.951,3.236-2.871,1.23c-1.186-0.467-0.092,2.086-0.844,2.593C169.387,87.518,170.515,86.748,170.925,86.384z
				 M170.748,78.948c0.838-1.709-0.734-2.37-1.042-4.137c-1.14,1.003-1.071,0.091-2.53,0.012c-1.299-0.627-0.313-2.895-2.29-1.869
				c-1.926-0.82-2.689-2.553-2.376-3.202c-1.988-1.453,2.461-0.638,0.103-1.903c-1.487-2.393-3.584-0.012-3.367,2.097
				c-1.368,2.205,0.455,3.499,1.806,2.034c1.829,0.592,1.151,4.096-0.302,1.84c-0.547-0.889-1.538,1.606-2.006-0.012
				c0.57,2.159-1.561,1.504,0.313,2.627c0.609,2.82,1.111-0.45,2.086-0.587c2.479,0.046,2.25-2.866,3.743-2.604
				c1.606,1.07-1.767,3.104-0.068,3.259c0.587,0.336,1.783,1.014,2.837,2.649C168.315,78.241,170.714,80.43,170.748,78.948
				L170.748,78.948z M123.947,70.373c0.878-1.806-2.091-3.162-2.734-0.895c-1.801,1.88,0.347,2.473,2.079,1.915
				C123.873,71.564,123.714,70.664,123.947,70.373z M152.556,66.698c0.484-2.063-2.143-3.721-3.498-2.2
				c-1.055,1.778,0.592,2.712,0.991,3.134C151.701,69,152.271,69.359,152.556,66.698L152.556,66.698z M166.914,116.405
				c-0.985-0.82-0.849-1.026-2.131-0.923c2.416-0.815-1.037-2.388-1.015-0.548c-0.792,0.08-2.826,1.527-3.208-0.091
				c0.53-0.615,3.789-0.649,2.832-2.217c2.484-0.005,3.465,0.764,3.812,3.778C167.684,116.929,166.834,116.872,166.914,116.405
				L166.914,116.405z"/>
			<path id="path2889_1_" fill="#8F8F8E" d="M132.078,108.144c-1.436-0.764,0.513-1.881-0.37-3.573
				c0.963-0.312,2.239-1.327,0.199-2.341c-1.202-0.895-2.752-0.946-4.148-1.447c-2.057,0.734,2.547-1.978-0.467-2.689
				c0.159-2.599,1.322,1.982,2.529,0.358c1.642-1.281,1.596,1.943,3.003,1.909c1.362-0.205,4.188,3.236,1.749,2.769
				c-2.119,1.789-1.355,3.191,1.14,2.229c2.131-2.559,1.892,2.273,0.273,1.954c-0.523-2.006-2.483-0.673-1.572,1.014
				C134.482,109.209,132.352,108.924,132.078,108.144z M124.83,107.665c-1.355-1.698-2.268,1.321-3.486-0.547
				c-1.345-0.331-0.462-1.368-1.96-2.257c-1.311-0.718-0.906-3.236-0.649-4.216c1.47,0,3.259-1.311,1.561-2.53
				c-2.393-1.572,0.575-2.553,1.401-0.364c1.334,1.128,1.897-0.667,0.138-0.633c0.729-2.091-1.698-1.156-2.94-1.367
				c-1.083-1.031-4.877-2.718-2.883-0.16c0.273,1.18-1.288,2.012-0.729,0.382c-1.767-0.655-1.436,0.667-2.086,1.197
				c0.439,1.355-1.926,2.204,0.274,3.339c-2.154,2.25-1.391-2.645-2.89-3.652c-2.034-2.319-1.213,1.641-0.758,2.479
				c-1.504,0.358-3.025-1.55-3.777-2.838c-2.159-0.638-1.544-1.88-2.17-2.774c-1.801,0.245-1.163-2.707-2.997-2.08
				c1.322-1.208-3.373-3.51-0.889-4.182c-1.345-2.052-3.288-4.137-3.772-6.404c-0.49-1.242-2.404-2.553-1.789-5.025
				c-1.162-0.844-0.216-2.781-0.41-4.131c0.946-1.458,0.217-3.23,1.026-4.917c1.083-2.724-0.183-1.937-1.026-3.612
				c0.906-3.379,1.767-6.792,3.407-9.891c2.028-1.613-0.746-1.869,1.305-2.125c0.029,1.932,0.963,0.308,1.385,1.897
				c0.444-2.313,1.55-3.988,3.407-5.083c1.328,1.368-0.752,2.724-0.125,4.387c-0.604,2.598,0.747,3.054,2.872,1.407
				c-0.547,2.627,1.487-0.752,1.259-1.327c-0.484-0.274,0.826-1.732,0.952-2.9c2.689-1.704-0.57-2.308,1.31-5.054
				c0.821-0.849,2.313-2.313,3.59-2.051c2.108,0.707,1.812-3.994,4.171-2.279c3.572-2.131-2.547,0.382,0.205-1.812
				c1.311-1.778,3.316-1.293,5.174-1.134c1.413-1.498,3.749-0.581,5.589-0.94c-0.404,1.744,5.077,3.401,0.906,2.997
				c0,0.889-1.214,2.461-1.14,3.589c3.367,0.445-0.342,2.365,2.154,2.188c2.239-0.57,1.213,0.41,0.706,1.732
				c-0.9-0.103-2.889,0.433-2.627,2.051c0.587,1.613-3.122,2.507-1.584,3.669c1.021,1.276,2.764,1.704,4.279,1.55
				c1.316-1.362,2.051,0.604,1.63,1.63c-0.058,1.8-1.687,2.387-2.171,3.441c-0.77,2.632-2.729,0.216-2.359-0.969
				c-1.806,0.797,0.826,2.393-0.553,3.669c-0.461-2.143-2.483,1.846-2.25-1.128c-0.895,0.285-1.886,2.302-1.92-0.108
				c-0.872,0.097,0.137,3.846-1.658,2.889c-1.305-1.22-1.407,2.757-3.459,1.356c0.49-2.331-3.681-0.399-2.672,1.493
				c-2.388-0.689-3.351,0.764-1.67,0.906c-3.196,2,2.496,1.214-0.684,3.134c0.975,1.105,3.248,2.501,0.633,2.797
				c0.78,1.732,1.687-0.717,3.14,0.046c-2.496,1.476-1.596,2.12,0.529,0.609c2.655,0.559-0.997,0.997-1.305,2.114
				c-0.718-0.524-2.724,1.795-2.553-0.273c-2.29,0.593-0.985-3.658-3.424-3.692c-1.077-0.957-1.134-3.441-3.516-3.145
				c0.501-1.128-1.385-2.883-2.678-3.202c-0.159-0.724,3.031-1.162,1.875-2.86c0.166-2.626-0.94-2.872-1.493-1.162
				c-0.797,0.148-1.533,2.142-0.974-0.376c0.672-0.718-0.57-2.621-0.091-3.077c-2.233,2.291-1.253-3.515-2.37-0.547
				c2,2.382-0.946,2.484,0.741,4.718c-2.12,0.034-0.992,3.977-1.846,5.487c-1.145,1.715,2.969,1.544,2.689,0.547
				c-0.034-1.18,2.866-0.564,3.282,0.558c1.481,0.883,0.467,3.339,2.672,2.08c-0.393,2.45-2.057-0.057-1.675,1.544
				c-0.023,2.068,1.635-0.952,1.641,1.146c-1.806,0.347,1.402,2.678-0.877,2.712c-1.214-0.103,1.305,1.014-1.043,1.401
				c3.55-0.547-2.005,2.923,1.55,1.538c1.128,0.456,2.729,1.391,3.841,1.447c1.15,3.567,1.629-1.174,1.23-2.814
				c0.684-0.649,1.886-0.41,3.02-0.758c1.527,1.088,4.524-0.917,3.037,2.45c-2.849,1.14-1.795,1.367,0.177,1.271
				c0.131,0.718,3.339,2.074,3.122,0.569c-0.804-0.479-1.22-1.367-2.735-1.566c0.229-2.051,1.282-0.177,2.348-0.313
				c-0.877-3.048,0.479,1.732,1.909,0.479c2.484-0.183-0.758-4,2.752-1.094c1.982,1.413,0.838,3.635-0.889,3.156
				c-0.233,0.854,1.857,4.684,1.253,2.513c0.205-2.438,1.226-1.55,1.345,0.12c1.687-0.052,2.553,2.279,3.385,1.094
				c0.308,0.342,1.863,1.618,2.615,2.541c0.86,2.211,1.692-1.248,1.116-1.88c-0.244-1.527-2.33-2.052-2.672-3.248
				c0.644-1.516-2.33-1.908-1.379-4.011c-1.709-2.37,1.966-1.18,0.673,0.438c1.538,2.513-0.661-1.02,1.196-0.462
				c1.914,0.645,2.017,3.196,4.239,2.359c2.062,0.33-0.422,2.461,1.361,3.23c1.276,2.011,2.325-1.339,2.923-0.633
				c1.847,1.413,0.513,3.767,0.399,5.664c-0.279,1.458,1.766,1.852,0.558,3.727c2.029-1.505,3.226,0.404,2.986,1.31
				c1.162,0.924,0.376,3.51-1.311,2.462c0.877,1.903-3.362,0.273-1.419,2.119c2.33,1.584-2.627,2.257-1.675,0.77
				c0.563-2.296-1.009,1.202-1.755,0.45c0.883,1.994-3.652-0.467-1.578,0.911c0.41,1.368-2.257-0.569-3.077-0.854
				c-1.994-1.128-3.22-3.498-5.373-4.296c-0.018-2.074,0.587-4.433-1.134-6.039c-0.985,1.145-2.86,1.794-2.131,2.814
				c-0.177,1.345,1.829,3.281-1.254,3.646c-1.487,1.333-0.569,2.513,0.593,3.681c1.06,1.293,4.729,1.282,4.877,2.74
				c-2.803,0-3.293,0.108-1.892,1.943c0.297,1.06-0.057,4.25-0.627,1.743c-2.443-1.424-0.137,1.692-0.644,1.294
				C126.637,108.576,125.754,108.337,124.83,107.665L124.83,107.665z M123.589,88.15c0.342-2.279-1.163-1.562-0.371-3.328
				c-1.128,0.428-1.516,0.906-2.592,1.077c-0.234,1.316-0.866,4.939,1.355,4.308c1.67,1.196,1.994-0.023,1.607-1.949V88.15
				L123.589,88.15z M187.106,103.181c-0.689-1.031,0.399-3.186,1.254-4.256c2.541-1.282,1.248-3.413,2.803-4.559
				c-0.062-1.664-3.134-4.809,0.148-3.612c1.812-0.137-1.419-1.732,0.81-1.453c1.789-0.649,0.097-3.116,0.684-0.889
				c-1.481,0.324-0.547-2.661,0.25-3.22c2.023-0.444,0.16-2.837,1.117-3.236c0.364,0.946-0.022,2.217,0.957,0.058
				c-0.388-1.288-0.706-3.602-0.593-3.202c1.863,0.9,0.126-1.504,0.57-2.302c-0.57-0.223-1.385,1.971-1.271-0.655
				c-1.71-0.143-0.884-2.729-2.092-3.96c-0.706-1.425-2.78,0.797-2.928-0.621c-0.137,1.407,0.712,3.316-0.034,4.416
				c-1.254-1.596-0.092,1.971-2.029,0.387c-0.011-1.162-2.644-3.054-1.892-3.817c0.132-1.396,1.334-1.173,2.416-2.291
				c0.165-2.558-0.917-0.9-1.743-2.028c-0.946,0.718-2.814-1.333-2.467,1.151c-1.095-1.225-2.604-0.045-2.878-2.268
				c1.847-1.96,1.105,0.553,1.715,0.308c1.425-2.045-2.672-1.982-3.504-0.524c0.524-2.068,0.854-1.288-1.561-2.929
				c0.107-0.98,4.182-0.775,0.592-1.96c-2.153,0.387-1.025-1.846-1.128-3.345c-0.872,0.883-1.903,0.559-3.453,0.963
				c-1.458,0.997-2.051-0.786-3.703-0.296c-0.706,0.843-0.114,3.014-0.319,4.365c-0.473,2.108,0.41,2.553,1.134,3.8
				c0.462,1.316-1.003,2.194,0.798,2.473c1.738-2.484-0.541,1.065,1.801-0.085c2.501-1.219,3.532,0.388,5.373,0.371
				c0.627,0.689,0.034,2.803,1.076,3.835c0.234,2.427,2.98,1.737,2.621,4.467c-0.553,1.23-1.447,2.895-0.66,3.544
				c-2.593,0.216,0.712-4.034-1.18-4.285c-1.926-0.159-2.057,1.863-3.476,0.513c-0.718-0.33,1.401,2.012-0.792,2.633
				c-1.425,0.205-0.718-2.193-0.479-2.917c-1.1,0.774-2.086,0.239-3.025-1.208c-0.479-1.533-0.49-2.633,0.284-3.567
				c-0.006-0.684,2.895-2.325,0.627-1.915c-1.812-1.151-2.211-0.501-2.94,0.843c-0.752-0.291-2.022-3.311-3.196-1.629
				c-0.865,1.943-1.646-2.826-2.746-1.829c1.817-1.14,1.271-3.641-0.598-3.857c-1.311,1.003-2.86-0.387-4.023,0.501
				c-1.897,1.766-1.321-1.191-1.134-2.336c-0.37,2.729-0.985,0.797-2.137-0.183c-2.153-0.763,0.148,3.037-1.401,0.467
				c1.14-1.054,1.618-1.681-0.599-2.513c0.576-1.47-1.908-3.892-2.272-4.912c0.387-1.453,1.196-1.356,1.396-2.729
				c-2.114-0.854,2.239,0.365,1.077-1.573c-1.288,0.61-3.829,1.094-5.903,1.231c-0.29,1.458,2.496,1.271,3.031,1.766
				c-0.78,0.41-4.604,2.371-1.55,2.131c2.678,1.687-3.248,1.06-1.162,2.912c-1.094,0.587,1.709,2.513-0.627,2.507
				c-3.082,0.131-2.563,0.929-0.672,1.618c-0.303,1.259-3.18,1.077-2.804-0.405c-0.313-2.496-0.82,1.476-2.393,0.467
				c-2.114-0.12,0.171-1.413-1.778-1.265c-2.256,0.006-3.293,2.433-4.945,3.658c1.322,0.376,0.809,2.381,2.296,3.156
				c0.428,0.929,3.162-1.515,2.108,0.661c1.02-1.185,4.49-1.618,3.829,0.707c-0.285,3.458-1.521,3.601-4.501,2.883
				c-0.279-2.781-0.257-0.273-1.157-0.547c-3.082-1.105-2.233,5.185-4.479,5.026c-2.177-1.368-3.783,0.177-2.917,1.618
				c-1.122-1.744-3.817-4.826-4.786-5.151c-1.835-0.421-1.538-3.715-0.883-2.017c-1.407-0.433,1.783,2.308,2.199,1.014
				c-2.479-0.78,0.137-1.754-0.462-2.974c0.183-1.396,3.271-1.664,2.097,0.159c0.866-1.265,2.712-0.364,2.404-2.359
				c-0.467-0.49-3.185,0.023-0.353-0.872c1.538-2.216-1.847-0.701-1.51-2.239c3.321-1.527-2.57-2.097,0.005-3.242
				c1.481-1.385,2.872-1.088,4.097-0.53c1.385-1.766,3.368-0.068,3.157-2.672c-0.524-2.542-0.052,0.148,1.065-1.476
				c0.171-0.963-0.285-3.373,1.128-1.253c1.703,1.322,1.966-1.401-0.046-1.572c1.767-0.582,1.801-0.559,1.083-2.348
				c0.638-1.094-1.749-2.701-0.058-2.291c-0.296-0.536-0.205-3.259-1.39-3.248c-3.339,1.379-1.92-1.391-2.609-2.461
				c-1.857,2.843-2.758-3.595-4.331-0.9c-1.344,1.333-1.355-1.949,0.428-1.248c1.065,0.461,1.67-3.521,1.282-0.826
				c1.025,0.963-0.239,2.37,1.321,0.393c1.061,1.282,0.359,1.174,1.772,0.433c-0.257,0.872,0.137,3.082,1.498,2.695
				c1.755-1.464,1.026-2.609,1.447-5.458c1.049-2.085,3.92-1.441,5.892-1.732c1.584-0.125,1.128,1.453,3.077-0.912
				c-0.935-0.536-3.122-0.114-2.764-1.755c-1.59,1.048-0.701-1.949,0.422-2.108c2.165,1.47,1.92,0.103,3.624-0.062
				c-0.074,0.649,2.495,3.253,1.737,1.43c0.923-0.456,2.382-1.351,0.593-1.681c0.74-1.162,3.897-1.954,3.948,0.416
				c1.606,0.262,4.507,1.493,1.236,1.322c-2.666,0.171,1.396,0.582-0.541,1.203c-2.684,0.951,2.388,0.951,0.028,1.213
				c-0.929-0.239-3.624-0.353-3.293-1.624c-2.496-0.929,0.547,2.672-1.083,2.809c0.854,1.875,3.282,0.228,4.183,2.268
				c2.969,0.992,0.125,1.504,1.311,2.473c0.33,1.025,2.005-1.111,0.979,1.436c0.832,1.185,0.929,1.96,2.04,2.803
				c1.293,0.877,1.174-0.929,2.364,0.091c-0.569-1.311-0.786-2.519,0.889-2.536c-2.318-1.738,0.183-3.35,1.077-1.202
				c0.068,1.983,3.624-0.273,3.071,1.681c-0.233,1.8,1.498,1.51,1.727,3.139c1.458,0.735,3.555,0.034,4.997,0.729
				c1.521,2.461,5.327,1.783,7.162,4c1.225-0.216,2.438,1.06,3.862-0.513c1.163-1.185,2.85,3.134,1.926,0.012
				c0.034-3.499-4.376-2.49-3.908-5.812c0.285-2.176,0.866,1.333,2.045,1.801c1.351,0.393,0.685-2.045-0.826-0.65
				c1.801-1.538,1.801-3.441,0.633-5.31c-0.393-1.823-1.908-2.952-3.065-4.296c1.26,1.105,0.536,2.689,1.538,2.951
				c-0.153,1.687,2.046,2.644,1.853,3.789c-1.026,2.342-0.376-1.624-1.881-1.083c-2.273-2.023,0.559,0.974-0.489,1.875
				c-0.502,1.265-2.188,2.268-3.521,1.789c-2.074-0.9-4.729-1.584-4.991-3.943c-1.037-1.202-3.025-1.994-2.484-3.875
				c-0.022-1.242,1.049-0.609,1.504-2.04c-0.045-1.447,0.308-0.764,1.431-1.823c-2.217-2.365,2.143,1.447,1.156-2.273
				c-0.866-3.174-1.122-1.009-2.843-2.758c-1.26-1.008-1.584,0.137-3.379-1.042c-1.698,0.501-1.857-2.393-3.612-1.79
				c-0.639-2.814,2.7,1.276,2.45-0.547c-2.006-2.268,3.413,1.47,4.467,1.949c2.644,0.536-0.729,2.131,1.771,1.105
				c4.233,3.327,8.239,7.065,11.618,11.247c2.883,4.103,5.424,8.444,7.122,13.196c2.131,5.766,3.293,11.942,3.476,18.073
				c-0.137,4.239-0.479,8.456-1.692,12.541c-1.521,6.684-4.569,12.951-8.598,18.472l-0.228-0.143L187.106,103.181L187.106,103.181
				L187.106,103.181z M191.306,63.542c0.428-1.311,0.468-3.556-1.441-3.316c-1.596,0.205-1.025,2.467-1.208,3.681
				C189.682,64.949,191.038,66.556,191.306,63.542z M133.992,51.211c-0.216-1.687-2.039-0.604-2.905-2.103
				c0.854-1.589,1.333,0.188,3.156-0.461c2.678-0.752,2.985,0.604,1.117,2.496C135.189,51.833,134.334,51.109,133.992,51.211z
				 M135.52,29.919c-1.031-0.222-2.695-0.963-0.9-1.35c0.997-1.146-0.091,2.12,1.436-0.444c-1.025-1.504,3.123-2.268,1.857-1.117
				c-1.162,0.86,1.687,0.421,0.832-0.752c1.949-1.253,5.379-1.544,7.18-0.9c0.461,2.313,0.957,3.196-1.049,1.772
				c-1.926,0.291-1.305,2.319-3.401,1.715c-0.621-2.313-3.356-0.011-4.7,0.547C136.352,29.56,135.759,30.945,135.52,29.919z"/>
			<path id="path2887_1_" fill="#7F7F7F" d="M124.796,107.255c-2.495-0.912-1.88-0.034-1.305-1.721
				c-1.219-0.57-2.889,0.039-3.783-1.129c-1.225-0.604-0.559-2.985,0.143-2.495c-2.712-0.536-0.193-1.191,1.117-1.812
				c1.516-0.826-2.61-3.999,0.108-2.849c0.097,1.55,2.433,1.664,2.495,0.086c-2.547,0.205-0.559-2.018-1.265-1.715
				c-0.348-1.14-2.359,0.205-3.584-0.343c-0.724-0.433,2.945-0.66,0.262-1.726c-1.743-1.738,0.217,2.523-1.401,0.758
				c-1.88-1.202,1.532-3.487-0.609-2.028c-0.484-0.935-2.82-0.428-2.649,0.404c1.458,0.097,2.199,0.416,0.558,1.003
				c0.587,2.455-0.82,1.11-1.697,2.324c-0.94-0.308-4.097-2.422-2.262-0.461c1.635,1.139,0.552,2.358-0.45,0.666
				c-0.724-1.453-2.274,0.77-3.066-0.849c-1.709,0.587-2.325-2.154-4.125-2.154c-1.795-0.786,0.712-2.045,0.114-3.384
				c-0.416-2.394-1.743,0.239-0.843,0.729c-1.464-1.037-0.877-2.462-2.188-3.807c-2.9-3.755,3.419-0.171,2.074-1.982
				c-3.646-0.918,1.578-1.356,1.789,1.265c-0.023,2.427,2.575,1.225,0.986-0.251c-0.917-0.935,2.667-2.239,0.496-3.401
				c-1.219,1.932-2.051-0.222-2.04-0.268c-1.892,0.268,1.425-0.661,1.995-0.422c0.501-0.627-0.741-0.068-0.718-1.219
				c-2.279,0.957-2.723,0.666-3.669-0.319c-1.954-0.479,0.992-1.778,1.402-2.177c1.094,0.022,0.684-1.345-0.262-0.912
				c-0.268-1.965-2.359,2.154-2.82,2.633c-1.766-0.376,1.168-1.869-1.123-1.755c-2.712-2.814,0.467-0.814,0.439-1.293
				c-2.057-2.673,2.034-0.519,2.513-2.331c1.618-2.552-0.296,1.373,1.253,0.308c-0.479,2.131,1.846,0.08,1.117,2.684
				c0.376-0.769,3.852-2.022,2.747,0.114c-1.117,0.985,0.946,2.125-1.14,3.14c1.145,1.162,2.564-0.399,1.401,1.082
				c0.627,1.596,1.333-1.06,2.564,0.753c0.461,1.868,2.644,2.644,2.284,4.518c-1.11,3.094,3.642,1.077,0.997,0.188
				c0.331-0.678-1.771-2.028-0.74-2.917c2.427-0.41,2.849-0.735,3.658,1.339c2.239,0.724-0.639,3.612,1.219,3.868
				c2.438,0.126-1.287,3.214,1.886,1.168c0.108,0.895,2.12,0.906,1.67,0.895c-2.599,0.303-0.695,1.994,0.49,0.753
				c1.401-2.063,0.831-0.866,1.92,0.479c0.684,1.447,2.991,0.062,3.185,1.914c0.975,1.288,1.642,1.966-0.632,1.704
				c-0.234,1.635-2.639,3.498,0.04,3.846c0.758,1.755,1.806,1.687,3.168,2.147c2.347,0.992-3.226,1.26-0.559,2.365
				c2.039,0.905-1.236,2.068-2.217,1.271C125.742,106.827,126.813,108.679,124.796,107.255z M188.093,101.374
				c1.042-0.718,2.376-2.29,1.846-3.657c0.843-0.388,0.991-1.744,1.737-2.018c0.399-1.15,1.437-2.37,1.129-4.358
				c-1.391-2.137,3.088-1.123,1.042-2.604c0.929-1.948,1.978-4.119,1.043-6.244c1.538,2.689,0.297-3.316,0.81-4.199
				c-0.245-1.738-0.439-2.991,0.797-4.074c-2.495,1.083-0.501-1.937-0.222-1.937c-2.103,0.507-2.593-1.06-0.268-0.421
				c-0.103,0.592,0.079-3.613-0.394-2.051c-0.849,2.279-2.171-3.077-0.427-2.963c0.342,3.065,1.982,0.889,0.803,0.216
				c0.04-0.308-2.308-1.886-0.724-1.869c0.695-1.573-1.202-3.02,0.028-3.624c0.735-1.373-3.07-2.723-2.398-4.512
				c0.695-1.413-1.727-1.949-1.151-3.527c-0.25-1.396-1.823-2.057-1.355-3.857c-0.171-3.043-1.652-1.151-1.025,0.837
				c-1.983-2.319-1.231-1.128-1.186-0.143c-1.327-0.393-1.425-2.364-1.39-3.641c0.273-1.054,0.147-2.399,1.31-1.083
				c-1.697,0.837,0.627,1.401,0.171,0.085c1.938,2.638,0.148-2.239-1.675-1.767c1.009-2.501-2.724-4.29-3.749-6.484
				c-0.997-2.347-2.507-2.387-3.977-4.21c-3.328-3.823,2.216,1.271,3.464,2.57c2.991,2.552,5.19,5.88,7.436,9.059
				c1.908,4.273,4.672,8.216,5.703,12.832c1.214,4.649,2.416,9.378,2.086,14.227c0.011,3.333,0.245,6.694-0.764,9.931
				c-1.242,7.065-4.205,13.755-8.034,19.806C188.52,101.705,188.098,101.733,188.093,101.374L188.093,101.374z M137.907,100.411
				c-1.294-0.519-1.248-1.247-1.727-2.125c-0.331-0.911-0.479-2.78,1.208-1.185c1.276,0.33,2.843-1.642,0.387-1.63
				c-2.107-0.103-1.436-1.807-1.174-3.276c2.086-1.669,3.043-0.638,4.177,0.746c1.202-0.022,0.553-3.156-0.917-2.376
				c-0.627-1.532-2.906-0.256-2.689-2.273c1.538-1.755-2.746-1.447-0.257-2.131c1.909-0.649-1.612-2.188-1.1-1.766
				c-0.131,1.834-2.37-0.729-1.629-1.727c0-3.333,2.729,2.034,2.746,0.245c-0.559-1.459,1.972,0.644,1.253,1.641
				c2.297,1.926-2.136-0.148,0.775,1.988c-0.028,0.422-0.826,2.9,0.991,1.829c1.202-0.33,3.276-0.165,2.268,1.584
				c0.114,1.447,0.633,2.633,0.81,4.057c0.969,0.775,1.47,1.094,2.529,1.938c1.242,0.473-2.587,2.222-3.134,3.23
				c-1.658-0.638-2.427,1.242-3.566,1.63C138.539,100.68,138.226,100.543,137.907,100.411L137.907,100.411z M125.822,92.298
				c-1.061-0.917-2.108-1.351-1.607-3.242c1.447-0.398,1.037-1.008-0.216-1.253c-0.422-3.51,3.271-2.365,1.709-0.804
				c2.29-1.071-0.701,0.712,1.391,1.487c1.23-1.402,3.008,1.96,1.538,1.242c-0.906,1.202-1.807,2.358-2.599,0.387
				c-3.054,1.043,1.881,0.719,0.342,2.234C125.987,92.953,126.096,93.062,125.822,92.298z M177.147,78.014
				c-1.18-0.388-2.57-0.832-3.476-2.143c-0.753-0.387,3.498-0.832,0.296-1.15c-2.513-0.684,1.19-1.015-0.296-1.778
				c-0.524-2.234,2.438-1.128,0.843-2.114c-2.655,0.388,0.296-2.473,0.9-0.176c2.985,1.504-1.299-0.171,0.82,2.074
				c-2.45,0.872,0.741,1.675,1.652,0.952c0.82-0.917,2.804,4.028,0.963,3.345C177.494,76.065,178.332,79.324,177.147,78.014z
				 M134.197,72.51c-1.424-0.752-2.358-0.775-2.347-2.404c-1.374-0.621,1.663-1.943,0.296-2.507
				c-1.271-2.541,2.302-2.182,1.14-3.601c-2.78-0.017,2.969-0.535,0.183-1.333c0.005-2.08,1.452-0.923,2.284-1.709
				c1.978,0.16,0.963,2.143,1.504,2.365c-2.142-0.034-1.202,3.265-3.299,2.154c-2.29,1.339,2.564,1.282,1.55,3.356
				c-1.265,0.775,0.695,3.031,1.316,1.105c1.807-1.105,2.513,2.701,0.609,2.057c-1.088-0.604-2.826-0.473-2.632,1.117
				C134.597,72.909,134.397,72.709,134.197,72.51z M183.067,66.88c-0.279-2.695-2.946-1.031-3.698-1.949
				c-0.706-1.037,0.889-3.168-1.077-3.077c-1.321-0.547-2.171-1.897-1.51-3.362c0.137-1.47,0.205-6.222,1.276-2.872
				c1.994,2.006,0.034-0.444,0.513-1.687c0.946-1.316-1.823-2.951,0.82-2.291c2.655,1.026,4.81,1.504,7.031,1.675
				c0.438,1.652-1.162,0.04,0.53,2.028c1.566-0.028,0.929,1.185,2.205,1.869c-0.581,0.843,1.424,2.222-0.319,3.253
				c-1.06,2.661-2.416-3.077-0.746-1.441c-0.587-2.04-2.143-2.04-0.735-0.649c-2.325,0.832,1.054,3.441,0.022,4.558
				c-2.529,0.484-0.137,2.45-1.174,3.595C186.104,67.598,183.164,67.473,183.067,66.88z M165.479,65.046
				c-2.86-0.65,1.646-0.923-0.753-1.339c-1.731,0.302-5.424,1.818-5.048-0.615c-1.874-1.806-2.917-0.536-3.852-0.695
				c1.823-1.453-0.593-2.672-1.447-3.777c0.462-1.607-0.786-2.085-2.103-2.53c0.062-2.051,2.359-0.906,1.556-2.917
				c1.606-0.456,1.265-4.062-0.507-2.08c-1.26-1.083-1.544,1.732-3.242,0.843c-1.339-0.148-3.049,0.348-4.159-0.188
				c-1.915-3.31-0.479,2.963-2.815,0.091c-2.062,0.376-2.678-1.185-2.803-3.476c0.764-1.55-1.755-3.1-1.419-3.373
				c0.33-1.185,1.407-1.835,0.507-3.242c-0.831-1.852,1.573-2.786,1.652-3.76c1.009-0.029,4.058-0.747,2.798,1.042
				c-0.462,1.994-2.9-0.524-3.396,1.265c-1.294,1.288,2.171,0.877,1.954,0.125c1.43,0.296,2.843,0.553,3.829-0.763
				c0.125-1.562,1.868-1.305,2.062,0.604c0.256,2.968,0.006,6.062,0.575,8.957c0.074,1.39,2.285,2.689,0.975,1.242
				c-0.086-2.57,1.14-0.057,2.541-1.213c-1.698-0.45-1.134-2.239-2.199-3.071c-1.847-1.516,3.47-0.9,0.37-2.598
				c-2.655,0.957-1.15-4.176-0.524-0.382c2.018,0.023,0.587-1.977-0.085-2.752c0.103-1.573,0.04-3.048-0.969-3.834
				c-0.319-2.41,3.835-0.114,2.422-0.262c-1.943,0.769,0.803,1.151,1.321,2.194c1.362,0.376,3.743,1.401,4.428,2.347
				c-1.778,1.197,1.315,1.966,0.615,3.561c1.709-0.695,1.253,1.669,1.305,1.579c-1.391,1.629,1.641,0.376,1.829,1.538
				c1.185-1.265,3.635,2.165,3.51-0.182c0.228-1.39,1.789-1.47,0.945-2.781c1.823-0.729,3.271-0.98,2.131,0.678
				c1.049,0.849,1.618,2.729,2.963,2.94c1.994-0.256,6.017,0.53,1.994,1.721c0.81,1.43-0.143,1.259-0.137,2.832
				c0.103,2.632,1.658-2.359,2.559,0.25c0.051,1.504,0.108,3.02,0.159,4.524c-2.592,0.188,1.105,0.821-0.097,1.458
				c-1.276-1.111-3.031,1.322-3.624-0.484c-1.47,1.111-2.569-0.94-3.874,0.154c-2.159,0.068-0.354,2.803-0.08,1.071
				c-0.284-1.544,2.194-1.037,1.368,0.542c0.587,1.533-1.579,2.137-0.285,3.481C169.512,65.16,166.259,66.322,165.479,65.046z
				 M142.316,62.191c-1.031-0.974-3.054,0.365-4.302-0.701c-1.122-2.21,1.744,0.638,1.271-1.128c0.615-0.678,2.278-1.84,1.179-2.815
				c-0.444,1.276-1.436,2.125-1.361-0.353c0.143-1.253,2.489-0.684,3.504-1.219c0.205,1.794,4.068,0.843,1.972,2.649
				c1.96,0.347,2.484,2.057,2.193-0.348c1.875-1.595,1.105-0.821,1.379,0.78c1.703,1.92-2.051-2-1.533,1.681
				C145.536,62.151,143.701,61.861,142.316,62.191L142.316,62.191z M112.518,53.553c0.165-2.701,2.649,0.633,3.071-1.567
				c0.285-1.316-1.105-3.35-2.131-1.681c-2.621,1.966,0.057-2.023-1.447-1.499c-1.835,1.14-1.453-1.812-0.502-2.154
				c1.322-0.148,3.157-1.322,2.519-2.814c0.359-0.2,1.061-1.823,2.348-2.011c2.245-0.313,2.997,2.832,4.398,4.108
				c0.058,2.12-1.572,0.125-2.017,0.917c-2.154,2.102,2.513,3.538,0.661,4.7c-1.71-0.034-2.245,1.14-2.923,1.687
				c-0.781,0.872-2.758,1.333-4.484,1.516C112.182,54.357,112.347,53.958,112.518,53.553z M125.435,48.716
				c-1.367-1.196,1.333-0.49,0.319-1.931c-0.257,0.04-1.197-3.117-0.94-2.365c1.938,1.276,1.532,0.205,3.789,2.125
				c2.153,0.633-2.279,0.604-0.718,2.097c-1.823-1.191-1.06,0.803-2.627,0.53l0.086-0.228L125.435,48.716L125.435,48.716z
				 M179.335,46.243c-2.541-0.416-3.105-2.461-4.251-3.823c-0.774-1.453,0.2-2.558-2.062-1.379
				c-0.415-1.681,0.468-2.695,1.026-1.504c-0.98-1.669,0.66-1.721,0.763-2.935c0.729-0.501,4.49,2.313,3.59-0.615
				c3.385,1.441,1.071,0.809,0.434,1.14c0.934,0.991,2.899,1.031,3.657,2.632c2.438,2.171,1.368,1.909,0.245,2.86
				c1.567,1.35,0.348,3.538-1.385,4.074C180.76,47.633,179.928,46.528,179.335,46.243L179.335,46.243z"/>
		</g>
	</g>
	<g id="layer5_1_" inkscape:groupmode="layer" inkscape:label="ShadowEdge" opacity="0.25">
		
			<radialGradient id="path2893-0_2_" cx="253.4844" cy="-18.8579" r="52.3827" gradientTransform="matrix(1 0 0 -0.9942 -108 53.6411)" gradientUnits="userSpaceOnUse">
			<stop  offset="0" style="stop-color:#FFFFFF;stop-opacity:0"/>
			<stop  offset="0.7808" style="stop-color:#373737;stop-opacity:0.2745"/>
			<stop  offset="1" style="stop-color:#010101;stop-opacity:0.698"/>
		</radialGradient>
		<path id="path2893-0_1_" sodipodi:nodetypes="cssss" fill="url(#path2893-0_2_)" d="M92.992,72.624
			c-0.131-27.565,22.312-52.396,52.396-52.396c32.295,0,52.408,26.129,52.59,52.396c0.183,26.996-22.187,51.28-49.786,51.912
			C113.321,125.333,93.105,98.024,92.992,72.624z"/>
	</g>
	<g id="layer4_1_" inkscape:groupmode="layer" inkscape:label="shadow">
		
			<radialGradient id="path2893-2_2_" cx="11.2744" cy="564.2441" r="52.3964" gradientTransform="matrix(-1.5616 0.0771 0.0622 1.2595 157.3278 -682.3121)" gradientUnits="userSpaceOnUse">
			<stop  offset="0" style="stop-color:#010101"/>
			<stop  offset="0.4903" style="stop-color:#010101;stop-opacity:0.698"/>
			<stop  offset="1" style="stop-color:#010101;stop-opacity:0"/>
		</radialGradient>
		<path id="path2893-2_1_" sodipodi:nodetypes="cssss" opacity="0.5" fill="url(#path2893-2_2_)" enable-background="new    " d="
			M92.992,72.624c-0.131-27.565,22.312-52.727,52.396-52.396c33.31,0.359,52.408,25.902,52.396,52.396
			c-0.017,26.209-20.842,50.345-48.812,51.718C115.669,125.972,93.105,98.024,92.992,72.624z"/>
	</g>
	<g id="layer3_1_" inkscape:groupmode="layer" inkscape:label="light">
		
			<radialGradient id="path2893-1_2_" cx="161.7969" cy="1.7124" r="52.3955" gradientTransform="matrix(1.4176 -0.1921 -0.1894 -1.3984 -83.6599 127.3194)" gradientUnits="userSpaceOnUse">
			<stop  offset="0" style="stop-color:#FFFFFF"/>
			<stop  offset="0.2377" style="stop-color:#E6E6E5;stop-opacity:0.8314"/>
			<stop  offset="1" style="stop-color:#010101;stop-opacity:0"/>
		</radialGradient>
		<path id="path2893-1_1_" sodipodi:nodetypes="cssss" opacity="0.6" fill="url(#path2893-1_2_)" enable-background="new    " d="
			M92.992,72.624c-0.513-27.565,22.312-52.396,52.396-52.396c31.521,0,52.408,27.691,52.396,52.396
			c-0.017,26.209-20.837,50.442-48.812,51.718C113.156,125.972,93.47,98.742,92.992,72.624z"/>
	</g>
</g>
<path opacity="0.25" fill="#FFFFFF" d="M114.745,113.818c2.018-14.438,9.065-27.326,17.96-38.643
	c13.537-17.195,32.05-29.89,51.678-40.049c-9.646-10.102-23.235-16.415-38.306-16.415c-29.246,0-52.949,23.702-52.949,52.943
	c0,17.487,8.478,32.985,21.548,42.63C114.7,114.126,114.717,113.972,114.745,113.818z"/>
</svg>
