<?xml version="1.0" encoding="utf-8"?>
<!-- Generator: Adobe Illustrator 14.0.0, SVG Export Plug-In . SVG Version: 6.00 Build 43363)  -->
<!DOCTYPE svg PUBLIC "-//W3C//DTD SVG 1.1//EN" "http://www.w3.org/Graphics/SVG/1.1/DTD/svg11.dtd" [
	<!ENTITY ns_extend "http://ns.adobe.com/Extensibility/1.0/">
	<!ENTITY ns_ai "http://ns.adobe.com/AdobeIllustrator/10.0/">
	<!ENTITY ns_graphs "http://ns.adobe.com/Graphs/1.0/">
	<!ENTITY ns_vars "http://ns.adobe.com/Variables/1.0/">
	<!ENTITY ns_imrep "http://ns.adobe.com/ImageReplacement/1.0/">
	<!ENTITY ns_sfw "http://ns.adobe.com/SaveForWeb/1.0/">
	<!ENTITY ns_custom "http://ns.adobe.com/GenericCustomNamespace/1.0/">
	<!ENTITY ns_adobe_xpath "http://ns.adobe.com/XPath/1.0/">
]>
<svg version="1.1" id="Layer_1" xmlns:x="&ns_extend;" xmlns:i="&ns_ai;" xmlns:graph="&ns_graphs;"
	 xmlns="http://www.w3.org/2000/svg" xmlns:xlink="http://www.w3.org/1999/xlink" x="0px" y="0px" width="216px" height="144px"
	 viewBox="0 0 216 144" enable-background="new 0 0 216 144" xml:space="preserve">
<metadata>
	<sfw  xmlns="&ns_sfw;">
		<slices></slices>
		<sliceSourceBounds  height="16383" width="16383" x="-8083" y="-8120" bottomLeftOrigin="true"></sliceSourceBounds>
	</sfw>
</metadata>
<path fill="#D1D3D4" d="M18.576,54.638c0,0,30.025-30.747,79.21-9.431c49.185,21.316,61.6,38.268,75.007,19.986
	c10.146-13.838,1.535-42.427-11.376-39.045c0,0,23.361-8.914,21.11,30.952c-1.633,28.921-23.777,42.619-47.55,24.592
	C111.207,63.651,71.857,19.384,18.576,54.638z"/>
<path fill="#D1D3D4" d="M31.693,57.985c0,0,31.66-20.906,74.391,12.911c42.732,33.817,47.649,43.341,47.649,43.341
	S72.274,42.307,31.693,57.985z"/>
<path fill="#D1D3D4" d="M153.733,95.319c0,0,22.13,4.301,30.125-16.606C183.858,78.713,181.396,103.001,153.733,95.319z"/>
<path fill="#D1D3D4" d="M173.281,100.355c0,0,28.979-11.319,19.017-54.334C192.298,46.021,213.127,89.941,173.281,100.355z"/>
<path fill="#D1D3D4" d="M155.622,101.714c0,0,9.057,6.339,14.037,18.111C169.659,119.825,169.206,104.883,155.622,101.714z"/>
</svg>
