<?xml version="1.0" encoding="utf-8"?>
<!-- Generator: Adobe Illustrator 14.0.0, SVG Export Plug-In . SVG Version: 6.00 Build 43363)  -->
<!DOCTYPE svg PUBLIC "-//W3C//DTD SVG 1.1//EN" "http://www.w3.org/Graphics/SVG/1.1/DTD/svg11.dtd" [
	<!ENTITY ns_extend "http://ns.adobe.com/Extensibility/1.0/">
	<!ENTITY ns_ai "http://ns.adobe.com/AdobeIllustrator/10.0/">
	<!ENTITY ns_graphs "http://ns.adobe.com/Graphs/1.0/">
	<!ENTITY ns_vars "http://ns.adobe.com/Variables/1.0/">
	<!ENTITY ns_imrep "http://ns.adobe.com/ImageReplacement/1.0/">
	<!ENTITY ns_sfw "http://ns.adobe.com/SaveForWeb/1.0/">
	<!ENTITY ns_custom "http://ns.adobe.com/GenericCustomNamespace/1.0/">
	<!ENTITY ns_adobe_xpath "http://ns.adobe.com/XPath/1.0/">
]>
<svg version="1.1" id="Layer_1" xmlns:x="&ns_extend;" xmlns:i="&ns_ai;" xmlns:graph="&ns_graphs;"
	 xmlns="http://www.w3.org/2000/svg" xmlns:xlink="http://www.w3.org/1999/xlink" x="0px" y="0px" width="63px" height="62px"
	 viewBox="0 0 63 62" enable-background="new 0 0 63 62" xml:space="preserve">
<metadata>
	<sfw  xmlns="&ns_sfw;">
		<slices></slices>
		<sliceSourceBounds  y="439.241" x="1.414" width="59.698" height="59.694" bottomLeftOrigin="true"></sliceSourceBounds>
	</sfw>
</metadata>
<g>
	<path fill="#AEDEE4" d="M59.908,30.913c0,15.817-12.826,28.642-28.648,28.642c-15.814,0-28.642-12.825-28.642-28.642
		c0-15.822,12.827-28.645,28.642-28.645C47.082,2.269,59.908,15.091,59.908,30.913z"/>
	<path fill="#E01B22" d="M61.111,30.913c0,16.483-13.363,29.846-29.852,29.846c-16.483,0-29.846-13.363-29.846-29.846
		c0-16.488,13.363-29.849,29.846-29.849C47.748,1.064,61.111,14.425,61.111,30.913z"/>
	<path fill="#FFFFFF" d="M31.26,59.831c-15.943,0-28.915-12.972-28.915-28.917c0-15.947,12.972-28.92,28.915-28.92
		c15.949,0,28.926,12.973,28.926,28.92C60.186,46.859,47.209,59.831,31.26,59.831L31.26,59.831z M31.26,3.351
		c-15.195,0-27.557,12.364-27.557,27.562c0,15.196,12.361,27.559,27.557,27.559c15.201,0,27.568-12.363,27.568-27.559
		C58.828,15.715,46.461,3.351,31.26,3.351L31.26,3.351z"/>
	<path fill="#FFFFFF" d="M31.554,40.408c-5.282,0-9.58-4.299-9.58-9.583c0-5.283,4.298-9.583,9.58-9.583
		c5.284,0,9.583,4.299,9.583,9.583C41.137,36.109,36.838,40.408,31.554,40.408L31.554,40.408z M31.554,22.601
		c-4.534,0-8.222,3.689-8.222,8.224c0,4.536,3.688,8.225,8.222,8.225c4.536,0,8.224-3.689,8.224-8.225
		C39.778,26.29,36.09,22.601,31.554,22.601L31.554,22.601z"/>
	<path fill="#FFFFFF" d="M37.839,12.08c0,3.55-2.876,6.428-6.428,6.428c-3.547,0-6.425-2.878-6.425-6.428
		c0-3.547,2.878-6.426,6.425-6.426C34.963,5.654,37.839,8.533,37.839,12.08z"/>
	<path fill="#FFFFFF" d="M37.797,49.786c0,3.547-2.876,6.426-6.429,6.426c-3.547,0-6.425-2.878-6.425-6.426
		c0-3.552,2.878-6.428,6.425-6.428C34.921,43.358,37.797,46.234,37.797,49.786z"/>
	<circle fill="#FFFFFF" cx="47.737" cy="21.505" r="6.429"/>
	<path fill="#FFFFFF" d="M21.428,40.018c0,3.547-2.876,6.425-6.426,6.425c-3.549,0-6.428-2.878-6.428-6.425
		c0-3.552,2.878-6.428,6.428-6.428C18.552,33.59,21.428,36.466,21.428,40.018z"/>
	<path fill="#FFFFFF" d="M21.515,21.678c0,3.55-2.876,6.428-6.428,6.428c-3.55,0-6.425-2.878-6.425-6.428
		c0-3.549,2.875-6.425,6.425-6.425C18.639,15.252,21.515,18.128,21.515,21.678z"/>
	<path fill="#FFFFFF" d="M54.078,40.018c0,3.547-2.875,6.425-6.428,6.425c-3.547,0-6.426-2.878-6.426-6.425
		c0-3.552,2.879-6.428,6.426-6.428C51.203,33.59,54.078,36.466,54.078,40.018z"/>
	<g>
		<path fill="#FFFFFF" d="M27.386,26.724h2.708v8.125h-2.708V26.724z"/>
		<path fill="#FFFFFF" d="M30.787,26.724h0.844v7.351h5.154v0.773h-5.998V26.724z"/>
	</g>
</g>
</svg>
