<?xml version="1.0" encoding="utf-8"?>
<!-- Generator: Adobe Illustrator 14.0.0, SVG Export Plug-In . SVG Version: 6.00 Build 43363)  -->
<!DOCTYPE svg PUBLIC "-//W3C//DTD SVG 1.1//EN" "http://www.w3.org/Graphics/SVG/1.1/DTD/svg11.dtd" [
	<!ENTITY ns_extend "http://ns.adobe.com/Extensibility/1.0/">
	<!ENTITY ns_ai "http://ns.adobe.com/AdobeIllustrator/10.0/">
	<!ENTITY ns_graphs "http://ns.adobe.com/Graphs/1.0/">
	<!ENTITY ns_vars "http://ns.adobe.com/Variables/1.0/">
	<!ENTITY ns_imrep "http://ns.adobe.com/ImageReplacement/1.0/">
	<!ENTITY ns_sfw "http://ns.adobe.com/SaveForWeb/1.0/">
	<!ENTITY ns_custom "http://ns.adobe.com/GenericCustomNamespace/1.0/">
	<!ENTITY ns_adobe_xpath "http://ns.adobe.com/XPath/1.0/">
]>
<svg version="1.1" id="Layer_1" xmlns:x="&ns_extend;" xmlns:i="&ns_ai;" xmlns:graph="&ns_graphs;"
	 xmlns="http://www.w3.org/2000/svg" xmlns:xlink="http://www.w3.org/1999/xlink" x="0px" y="0px" width="216px" height="144px"
	 viewBox="0 0 216 144" enable-background="new 0 0 216 144" xml:space="preserve">
<metadata>
	<sfw  xmlns="&ns_sfw;">
		<slices></slices>
		<sliceSourceBounds  height="145.074" width="151.196" x="69.288" y="-1.431" bottomLeftOrigin="true"></sliceSourceBounds>
	</sfw>
</metadata>
<g>
	<defs>
		<filter id="Adobe_OpacityMaskFilter" filterUnits="userSpaceOnUse" x="83.148" y="13.654" width="123.481" height="118.474">
			<feColorMatrix  type="matrix" values="1 0 0 0 0  0 1 0 0 0  0 0 1 0 0  0 0 0 1 0"/>
		</filter>
	</defs>
	<mask maskUnits="userSpaceOnUse" x="83.148" y="13.654" width="123.481" height="118.474" id="SVGID_1_">
		<g filter="url(#Adobe_OpacityMaskFilter)">
			
				<radialGradient id="SVGID_2_" cx="284.4648" cy="3173.5312" r="26.7549" gradientTransform="matrix(2.0467 -0.3989 0.4685 1.9743 -1924.1222 -6079.1392)" gradientUnits="userSpaceOnUse">
				<stop  offset="0.2474" style="stop-color:#FFFFFF"/>
				<stop  offset="0.6753" style="stop-color:#BDBDBD"/>
				<stop  offset="0.933" style="stop-color:#010101"/>
			</radialGradient>
			<path fill="url(#SVGID_2_)" d="M201.818,61.794c7.195,30.336-12.458,59.905-43.891,66.028
				c-31.441,6.122-62.772-13.512-69.967-43.844c-7.195-30.327,12.454-59.88,43.89-66.019
				C163.292,11.843,194.611,31.473,201.818,61.794z"/>
		</g>
	</mask>
	<path mask="url(#SVGID_1_)" fill="#FFFFFF" d="M205.06,61.168c7.608,32.062-13.166,63.312-46.394,69.774
		c-33.229,6.482-66.339-14.276-73.947-46.328c-7.608-32.062,13.166-63.29,46.389-69.779C164.339,8.367,197.446,29.111,205.06,61.168
		z"/>
	<g>
		<defs>
			<polygon id="SVGID_3_" points="144.563,9.197 145.871,52.466 148.461,52.801 160.481,11.208 150.986,53.448 153.408,54.404 
				155.699,55.667 179.099,26.525 157.811,57.199 159.709,58.985 161.378,60.995 197.339,40.231 162.772,63.199 200.91,55.254 
				165.181,70.604 208.455,69.189 165.343,73.21 202.164,76.863 165.181,75.814 164.696,78.375 205.447,92.992 163.883,80.858 
				162.772,83.22 193.094,103.715 161.378,85.419 159.709,87.429 188.387,119.872 157.811,89.22 178.579,120.29 155.699,90.752 
				171.709,121.628 153.408,92.004 150.986,92.966 160.92,134.561 148.461,93.612 145.871,93.943 143.262,93.943 138.172,128.998 
				140.674,93.612 128.646,135.212 138.146,92.966 135.718,92.004 117.611,123.553 133.428,90.752 131.32,89.22 102.008,119.563 
				129.418,87.429 102.247,108.916 127.754,85.419 126.358,83.22 88.938,99.847 125.244,80.858 124.441,78.375 88.576,84.238 
				123.951,75.814 80.673,77.225 123.789,73.21 123.951,70.604 81.681,61.208 124.441,68.039 83.685,53.422 125.244,65.555 
				126.358,63.199 90.515,38.908 127.754,60.995 129.418,58.985 100.746,26.546 131.32,57.199 133.428,55.667 113.728,17.115 
				135.718,54.404 138.146,53.448 140.674,52.801 136.543,9.701 143.262,52.466 			"/>
		</defs>
		<clipPath id="SVGID_4_">
			<use xlink:href="#SVGID_3_"  overflow="visible"/>
		</clipPath>
		<defs>
			<filter id="Adobe_OpacityMaskFilter_1_" filterUnits="userSpaceOnUse" x="69.288" y="0.357" width="151.196" height="145.074">
				<feColorMatrix  type="matrix" values="1 0 0 0 0  0 1 0 0 0  0 0 1 0 0  0 0 0 1 0"/>
			</filter>
		</defs>
		<mask maskUnits="userSpaceOnUse" x="69.288" y="0.357" width="151.196" height="145.074" id="SVGID_5_">
			<g filter="url(#Adobe_OpacityMaskFilter_1_)">
				
					<radialGradient id="SVGID_6_" cx="284.4619" cy="3173.5303" r="32.7589" gradientTransform="matrix(2.0467 -0.3989 0.4685 1.9743 -1924.1222 -6079.1392)" gradientUnits="userSpaceOnUse">
					<stop  offset="0.1907" style="stop-color:#FFFFFF"/>
					<stop  offset="0.4124" style="stop-color:#BDBDBD"/>
					<stop  offset="0.933" style="stop-color:#010101"/>
				</radialGradient>
				<path clip-path="url(#SVGID_4_)" fill="url(#SVGID_6_)" d="M214.592,59.311c8.815,37.141-15.248,73.346-53.743,80.834
					c-38.494,7.503-76.858-16.542-85.672-53.679c-8.815-37.142,15.258-73.315,53.752-80.833
					C167.424-1.857,205.777,22.174,214.592,59.311z"/>
			</g>
		</mask>
		<path clip-path="url(#SVGID_4_)" mask="url(#SVGID_5_)" fill="#FFFFFF" d="M218.562,58.537
			c9.312,39.253-16.115,77.519-56.808,85.446c-40.684,7.93-81.234-17.488-90.543-56.742C61.894,47.987,87.33,9.747,128.013,1.802
			C168.707-6.112,209.247,19.283,218.562,58.537z"/>
	</g>
	<polygon fill="#FFFFFF" points="155.684,58.033 157.501,59.55 182.609,38.032 159.108,61.28 191.598,39.294 160.493,63.194 
		161.623,65.271 195.384,53.3 162.487,67.474 163.067,69.764 195.955,66.894 163.363,72.11 202.565,73.424 163.353,74.477 
		163.047,76.812 192.682,85.79 162.447,79.103 193.41,92.736 161.572,81.302 160.433,83.368 191.375,107.475 159.033,85.271 
		157.408,86.996 177.526,113.293 155.576,88.498 175.48,122.306 153.582,89.76 151.433,90.757 160.238,122.066 149.189,91.479 
		146.863,91.912 148.014,131.125 144.502,92.055 142.141,91.897 134.752,123.837 139.82,91.444 126.461,128.331 137.575,90.706 
		135.443,89.693 117.469,115.68 133.448,88.426 131.637,86.91 104.545,110.646 130.019,85.18 128.634,83.261 98.628,98.294 
		127.504,81.189 126.64,78.985 88.343,87.465 126.06,76.69 125.774,74.354 90.537,73.016 125.778,71.982 126.09,69.637 
		95.717,60.568 126.679,67.352 127.555,65.153 93.833,45.122 128.705,63.086 130.1,61.183 106.623,37.361 131.728,59.463 
		107.738,28.414 133.55,57.967 135.551,56.7 122.399,25.681 137.693,55.702 126.822,18.011 139.942,54.979 142.269,54.547 
		144.625,54.404 148.4,15.355 146.985,54.558 154.529,22.001 149.307,55.01 151.552,55.753 168.137,23.604 153.688,56.761 	"/>
	<g>
		<polygon opacity="0" fill="#F4CE43" points="195.003,96.763 185.507,95.511 191.67,102.834 182.412,100.396 190.845,110.769 
			178.733,104.86 182.875,113.491 174.514,108.823 177.547,117.908 169.837,112.238 171.709,121.628 164.769,115.022 
			166.718,127.934 159.388,117.16 158.865,126.723 153.785,118.606 152.071,128.026 148.044,119.339 145.164,128.475 
			142.252,119.349 137.946,131.639 136.512,118.621 131.448,126.759 130.903,117.19 125.957,122.178 125.524,115.069 
			118.599,121.68 120.451,112.289 112.744,117.979 115.77,108.891 103.737,117.889 111.545,104.93 102.667,108.529 107.851,100.479 
			98.597,102.936 104.745,95.592 95.253,96.869 102.271,90.365 88.774,91.592 100.48,84.858 90.974,83.739 99.39,79.174 
			90.098,76.873 99.019,73.402 90.088,69.952 99.382,67.621 84.154,61.672 100.454,61.937 92.662,56.375 102.236,56.436 
			98.678,51.555 104.694,51.193 98.531,43.87 107.793,46.308 102.592,38.267 111.473,41.845 102.637,29.004 115.687,37.875 
			112.654,28.791 120.369,34.47 118.497,25.085 125.438,31.676 125.632,25.04 130.817,29.539 131.343,19.981 136.421,28.098 
			138.141,18.673 142.162,27.366 144.441,12.942 147.948,27.355 151.953,18.658 153.688,28.078 157.749,22.734 159.291,29.513 
			165.337,22.083 164.676,31.636 171.604,25.02 169.756,34.419 177.454,28.719 174.438,37.818 185.032,30.653 178.661,41.773 
			187.537,38.175 182.356,46.226 188.661,45.834 185.461,51.112 194.952,49.834 187.935,56.343 197.507,56.267 189.726,61.845 
			203.182,62.776 190.814,67.53 200.107,69.835 191.186,73.301 202.164,76.863 190.825,79.077 199.258,83.622 189.75,84.762 
			197.542,90.329 187.965,90.269 		"/>
		<polygon opacity="0.1111" fill="#F5CF3E" points="194.218,96.396 184.872,95.162 190.938,102.371 181.825,99.971 189.816,109.958 
			178.204,104.365 182.281,112.86 174.051,108.266 177.037,117.208 169.448,111.626 171.291,120.868 164.46,114.368 
			166.167,126.493 159.163,116.472 158.648,125.884 153.648,117.895 151.961,127.166 147.998,118.615 145.162,127.607 
			142.297,118.625 138.088,130.379 136.647,117.91 131.663,125.919 131.127,116.501 126.154,121.644 125.832,114.413 
			119.015,120.92 120.839,111.677 113.253,117.278 116.23,108.332 104.738,116.776 112.071,104.433 103.335,107.976 
			108.436,100.052 99.328,102.471 105.379,95.241 96.037,96.5 102.945,90.098 90.034,91.194 101.182,84.678 91.824,83.575 
			100.108,79.082 90.962,76.817 99.744,73.401 90.954,70.006 100.1,67.711 85.759,61.99 101.156,62.117 93.486,56.641 
			102.91,56.701 99.076,51.743 105.329,51.542 99.263,44.333 108.379,46.732 103.26,38.818 112.002,42.34 103.752,30.103 
			116.149,38.433 113.164,29.491 120.758,35.082 118.915,25.844 125.746,32.332 125.854,25.521 131.042,30.228 131.559,20.82 
			136.558,28.81 138.249,19.532 142.208,28.088 144.51,14.396 147.903,28.079 151.846,19.519 153.553,28.789 157.646,23.264 
			159.068,30.202 165.02,22.889 164.368,32.291 171.188,25.78 169.367,35.031 176.945,29.421 173.977,38.376 184.19,31.561 
			178.133,42.27 186.87,38.729 181.771,46.652 188.257,46.07 184.826,51.461 194.168,50.204 187.261,56.61 196.683,56.535 
			189.023,62.025 201.893,62.96 190.096,67.621 199.243,69.891 190.461,73.302 201.071,76.798 190.106,78.987 198.406,83.461 
			189.047,84.583 196.496,90.004 187.291,90.002 		"/>
		<polygon opacity="0.2222" fill="#F6D039" points="193.433,96.027 184.237,94.814 190.206,101.907 181.238,99.546 188.789,109.147 
			177.675,103.871 181.688,112.229 173.588,107.708 176.528,116.508 169.059,111.015 170.873,120.109 164.15,113.713 
			165.616,125.052 158.938,115.784 158.434,125.046 153.512,117.184 151.852,126.308 147.951,117.893 145.16,126.741 
			142.343,117.901 138.229,129.12 136.783,117.199 131.878,125.078 131.352,115.812 126.351,121.109 126.142,113.757 
			119.431,120.159 121.228,111.064 113.762,116.576 116.69,107.773 105.739,115.664 112.599,103.937 104.002,107.423 
			109.021,99.626 100.059,102.006 106.014,94.892 96.819,96.131 103.619,89.83 91.294,90.798 101.883,84.497 92.675,83.412 
			100.827,78.99 91.827,76.763 100.468,73.401 91.819,70.06 100.817,67.802 87.366,62.308 101.857,62.297 94.312,56.908 
			103.584,56.967 99.475,51.931 105.965,51.891 99.996,44.796 108.966,47.157 103.929,39.37 112.531,42.834 104.867,31.202 
			116.611,38.991 113.674,30.191 121.147,35.692 119.334,26.602 126.055,32.987 126.077,26.003 131.267,30.916 131.774,21.658 
			136.693,29.521 138.359,20.392 142.255,28.811 144.577,15.851 147.858,28.802 151.738,20.379 153.417,29.5 157.543,23.795 
			158.846,30.891 164.702,23.696 164.061,32.946 170.771,26.541 168.979,35.644 176.437,30.124 173.516,38.935 183.35,32.468 
			177.604,42.766 186.203,39.281 181.185,47.078 187.854,46.306 184.192,51.811 193.383,50.573 186.586,56.878 195.859,56.803 
			188.322,62.206 200.604,63.145 189.377,67.712 198.38,69.946 189.737,73.303 199.979,76.732 189.388,78.897 197.555,83.3 
			188.346,84.403 195.45,89.679 186.618,89.736 		"/>
		<polygon opacity="0.3333" fill="#F7D034" points="192.648,95.66 183.602,94.466 189.475,101.444 180.651,99.12 187.761,108.338 
			177.145,103.376 181.094,111.6 173.126,107.151 176.019,115.809 168.67,110.403 170.454,119.35 163.842,113.059 165.065,123.611 
			158.715,115.096 158.217,124.207 153.375,116.472 151.741,125.447 147.905,117.169 145.159,125.874 142.388,117.178 
			138.371,127.861 136.919,116.488 132.093,124.238 131.575,115.124 126.548,120.575 126.449,113.102 119.847,119.399 
			121.615,110.452 114.271,115.874 117.151,107.215 106.739,114.552 113.126,103.44 104.67,106.87 109.607,99.199 100.789,101.541 
			106.648,94.542 97.603,95.762 104.293,89.562 92.554,90.401 102.584,84.316 93.525,83.249 101.545,78.899 92.69,76.707 
			101.192,73.401 92.684,70.114 101.536,67.893 88.971,62.625 102.56,62.478 95.136,57.175 104.258,57.233 99.873,52.12 
			106.601,52.24 100.728,45.259 109.553,47.582 104.597,39.92 113.061,43.329 105.982,32.3 117.074,39.549 114.185,30.892 
			121.536,36.304 119.752,27.36 126.363,33.642 126.3,26.485 131.491,31.605 131.99,22.497 136.83,30.232 138.468,21.251 
			142.301,29.534 144.645,17.306 147.813,29.525 151.631,21.24 153.282,30.212 157.44,24.325 158.623,31.58 164.384,24.502 
			163.753,33.602 170.354,27.301 168.592,36.256 175.928,30.826 173.054,39.493 182.508,33.376 177.076,43.263 185.535,39.834 
			180.599,47.504 187.45,46.542 183.558,52.16 192.599,50.942 185.912,57.146 195.035,57.071 187.62,62.386 199.314,63.329 
			188.658,67.803 197.516,70.001 189.013,73.305 198.887,76.667 188.669,78.808 196.703,83.139 187.643,84.225 194.404,89.354 
			185.944,89.47 		"/>
		<polygon opacity="0.4444" fill="#F9D12E" points="191.863,95.292 182.967,94.117 188.743,100.981 180.064,98.695 186.732,107.527 
			176.615,102.881 180.5,110.969 172.663,106.594 175.509,115.108 168.28,109.791 170.036,118.591 163.532,112.403 164.514,122.171 
			158.49,114.407 158.001,123.368 153.238,115.76 151.632,124.588 147.859,116.445 145.157,125.007 142.434,116.453 
			138.513,126.602 137.055,115.778 132.308,123.397 131.799,114.436 126.744,120.04 126.758,112.445 120.263,118.64 
			122.003,109.839 114.78,115.173 117.611,106.656 107.74,113.439 113.652,102.944 105.337,106.316 110.192,98.772 101.52,101.076 
			107.282,94.191 98.386,95.393 104.967,89.296 93.814,90.004 103.286,84.135 94.376,83.086 102.263,78.808 93.555,76.652 
			101.917,73.4 93.549,70.167 102.253,67.983 90.577,62.943 103.261,62.658 95.96,57.442 104.932,57.499 100.271,52.308 
			107.236,52.589 101.46,45.722 110.14,48.006 105.266,40.472 113.59,43.824 107.098,33.399 117.537,40.107 114.694,31.593 
			121.925,36.915 120.17,28.119 126.672,34.298 126.522,26.967 131.716,32.294 132.206,23.335 136.966,30.944 138.577,22.111 
			142.347,30.256 144.713,18.76 147.77,30.249 151.523,22.101 153.147,30.923 157.338,24.855 158.4,32.269 164.066,25.309 
			163.445,34.257 169.938,28.062 168.204,36.869 175.419,31.528 172.593,40.051 181.667,34.284 176.548,43.759 184.868,40.387 
			180.013,47.929 187.047,46.777 182.923,52.51 191.814,51.312 185.238,57.413 194.211,57.339 186.919,62.566 198.025,63.514 
			187.939,67.894 196.651,70.057 188.288,73.306 197.794,76.602 187.95,78.717 195.852,82.978 186.94,84.045 193.357,89.029 
			185.271,89.203 		"/>
		<polygon opacity="0.5556" fill="#FAD228" points="191.078,94.925 182.332,93.77 188.011,100.519 179.478,98.27 185.705,106.717 
			176.086,102.387 179.906,110.338 172.2,106.036 175,114.408 167.892,109.18 169.617,117.831 163.224,111.749 163.964,120.729 
			158.266,113.72 157.785,122.53 153.101,115.049 151.521,123.729 147.812,115.723 145.155,124.141 142.479,115.729 
			138.654,125.343 137.19,115.067 132.522,122.558 132.023,113.746 126.941,119.506 127.065,111.789 120.679,117.88 
			122.391,109.228 115.289,114.471 118.072,106.097 108.741,112.327 114.18,102.447 106.004,105.764 110.778,98.347 102.25,100.612 
			107.917,93.842 99.169,95.022 105.641,89.027 95.074,89.607 103.987,83.954 95.227,82.922 102.981,78.716 94.418,76.597 
			102.641,73.4 94.414,70.221 102.972,68.074 92.183,63.261 103.963,62.838 96.785,57.708 105.606,57.764 100.668,52.496 
			107.872,52.938 102.192,46.185 110.726,48.431 105.934,41.023 114.119,44.318 108.212,34.498 117.999,40.665 115.204,32.293 
			122.314,37.526 120.589,28.876 126.981,34.953 126.745,27.448 131.939,32.982 132.422,24.174 137.103,31.655 138.687,22.97 
			142.394,30.979 144.78,20.214 147.725,30.972 151.416,22.961 153.013,31.634 157.234,25.386 158.178,32.957 163.748,26.114 
			163.138,34.913 169.521,28.822 167.815,37.481 174.91,32.23 172.131,40.609 180.825,35.191 176.021,44.255 184.201,40.941 
			179.427,48.355 186.643,47.013 182.288,52.859 191.03,51.681 184.563,57.681 193.387,57.607 186.217,62.747 196.735,63.698 
			187.221,67.985 195.788,70.113 187.563,73.307 196.702,76.535 187.231,78.627 194.999,82.816 186.238,83.865 192.312,88.704 
			184.598,88.937 		"/>
		<polygon opacity="0.6667" fill="#FBD320" points="190.293,94.557 181.697,93.421 187.279,100.056 178.891,97.845 184.677,105.906 
			175.557,101.892 179.312,109.707 171.737,105.479 174.49,113.708 167.502,108.567 169.199,117.072 162.915,111.094 
			163.412,119.289 158.041,113.031 157.569,121.691 152.964,114.337 151.412,122.869 147.767,114.999 145.153,123.273 
			142.523,115.006 138.795,124.083 137.326,114.356 132.738,121.717 132.247,113.058 127.138,118.972 127.374,111.133 
			121.095,117.12 122.778,108.614 115.798,113.77 118.533,105.538 109.742,111.215 114.706,101.951 106.672,105.21 111.364,97.92 
			102.98,100.147 108.551,93.491 99.952,94.653 106.315,88.761 96.333,89.21 104.688,83.773 96.077,82.759 103.7,78.624 
			95.283,76.541 103.365,73.399 95.279,70.275 103.689,68.164 93.789,63.579 104.665,63.019 97.609,57.976 106.28,58.03 
			101.066,52.685 108.507,53.287 102.925,46.648 111.312,48.855 106.603,41.575 114.648,44.813 109.328,35.596 118.462,41.223 
			115.714,32.994 122.703,38.138 121.007,29.635 127.29,35.608 126.968,27.93 132.164,33.671 132.639,25.012 137.238,32.366 
			138.796,23.83 142.439,31.702 144.849,21.669 147.68,31.695 151.309,23.821 152.878,32.346 157.132,25.917 157.955,33.646 
			163.431,26.921 162.83,35.568 169.104,29.583 167.428,38.093 174.401,32.933 171.669,41.167 179.984,36.099 175.492,44.752 
			183.534,41.494 178.841,48.781 186.239,47.249 181.653,53.208 190.246,52.05 183.89,57.948 192.562,57.875 185.516,62.928 
			195.446,63.882 186.502,68.076 194.924,70.168 186.839,73.308 195.609,76.47 186.512,78.537 194.147,82.655 185.536,83.687 
			191.266,88.379 183.924,88.67 		"/>
		<polygon opacity="0.7778" fill="#FCD318" points="189.509,94.189 181.062,93.072 186.548,99.592 178.304,97.419 183.648,105.097 
			175.026,101.396 178.719,109.077 171.275,104.921 173.98,113.008 167.113,107.956 168.781,116.312 162.606,110.439 
			162.861,117.849 157.817,112.343 157.353,120.853 152.827,113.625 151.302,122.009 147.721,114.275 145.151,122.406 
			142.568,114.282 138.937,122.824 137.462,113.646 132.953,120.877 132.471,112.369 127.335,118.438 127.683,110.477 
			121.511,116.359 123.167,108.002 116.308,113.067 118.994,104.979 110.742,110.103 115.233,101.455 107.339,104.657 
			111.95,97.493 103.711,99.683 109.186,93.142 100.735,94.284 106.989,88.493 97.594,88.813 105.389,83.593 96.927,82.596 
			104.418,78.533 96.147,76.485 104.089,73.399 96.145,70.329 104.407,68.254 95.395,63.896 105.366,63.199 98.434,58.242 
			106.955,58.295 101.464,52.873 109.143,53.636 103.657,47.111 111.899,49.28 107.271,42.126 115.178,45.308 110.442,36.695 
			118.925,41.781 116.225,33.694 123.092,38.749 121.425,30.393 127.599,36.264 127.19,28.412 132.389,34.36 132.854,25.851 
			137.375,33.078 138.904,24.689 142.485,32.424 144.916,23.124 147.635,32.418 151.201,24.682 152.742,33.057 157.029,26.447 
			157.732,34.334 163.113,27.727 162.522,36.224 168.688,30.343 167.04,38.706 173.893,33.635 171.207,41.726 179.143,37.006 
			174.964,45.249 182.866,42.047 178.255,49.207 185.836,47.485 181.02,53.558 189.461,52.419 183.216,58.215 191.739,58.144 
			184.813,63.108 194.157,64.066 185.783,68.167 194.06,70.224 186.115,73.31 194.517,76.404 185.793,78.447 193.296,82.494 
			184.833,83.507 190.22,88.054 183.25,88.404 		"/>
		<polygon opacity="0.8889" fill="#FDD40D" points="188.724,93.821 180.427,92.725 185.815,99.129 177.717,96.994 182.621,104.286 
			174.497,100.902 178.125,108.446 170.812,104.363 173.472,112.308 166.724,107.344 168.362,115.554 162.297,109.784 
			162.311,116.407 157.593,111.655 157.137,120.015 152.69,112.914 151.192,121.149 147.674,113.553 145.149,121.54 
			142.614,113.559 139.078,121.564 137.598,112.935 133.168,120.036 132.695,111.68 127.531,117.903 127.99,109.82 121.927,115.6 
			123.555,107.39 116.816,112.366 119.454,104.421 111.743,108.99 115.76,100.958 108.006,104.104 112.535,97.067 104.442,99.218 
			109.82,92.791 101.519,93.915 107.663,88.226 98.854,88.416 106.091,83.411 97.778,82.432 105.136,78.441 97.011,76.431 
			104.814,73.398 97.01,70.382 105.125,68.345 97,64.214 106.068,63.38 99.258,58.509 107.628,58.562 101.863,53.061 
			109.778,53.984 104.389,47.575 112.485,49.705 107.939,42.678 115.707,45.803 111.558,37.793 119.387,42.339 116.734,34.395 
			123.481,39.36 121.844,31.151 127.907,36.919 127.413,28.894 132.613,35.048 133.07,26.69 137.511,33.789 139.014,25.549 
			142.532,33.147 144.984,24.578 147.59,33.142 151.094,25.542 152.607,33.769 156.926,26.978 157.51,35.023 162.795,28.534 
			162.215,36.879 168.271,31.104 166.651,39.318 173.384,34.338 170.746,42.284 178.302,37.914 174.436,45.745 182.199,42.6 
			177.669,49.633 185.432,47.721 180.385,53.908 188.677,52.789 182.541,58.483 190.915,58.412 184.112,63.289 192.868,64.25 
			185.064,68.258 193.196,70.279 185.391,73.311 193.425,76.339 185.074,78.357 192.444,82.333 184.131,83.328 189.174,87.729 
			182.577,88.138 		"/>
		<polygon fill="#FED500" points="187.938,93.454 179.792,92.376 185.084,98.666 177.13,96.568 181.593,103.476 173.968,100.407 
			177.531,107.815 170.35,103.806 172.962,111.607 166.335,106.732 167.944,114.794 161.988,109.13 161.76,114.967 157.368,110.967 
			156.921,119.176 152.554,112.202 151.082,120.29 147.628,112.829 145.147,120.673 142.659,112.835 139.22,120.306 
			137.733,112.224 133.383,119.196 132.919,110.991 127.729,117.369 128.299,109.164 122.343,114.84 123.942,106.777 
			117.325,111.664 119.915,103.862 112.744,107.878 116.287,100.462 108.674,103.551 113.121,96.641 105.172,98.753 110.454,92.441 
			102.302,93.546 108.337,87.958 100.113,88.02 106.792,83.23 98.628,82.269 105.854,78.35 97.875,76.375 105.538,73.398 
			97.875,70.436 105.843,68.436 98.606,64.532 106.77,63.56 100.083,58.776 108.303,58.827 102.261,53.25 110.414,54.333 
			105.122,48.038 113.072,50.129 108.608,43.229 116.236,46.297 112.673,38.892 119.85,42.897 117.244,35.096 123.87,39.971 
			122.262,31.91 128.216,37.575 127.636,29.375 132.838,35.737 133.286,27.528 137.647,34.5 139.123,26.409 142.578,33.87 
			145.052,26.032 147.545,33.865 150.986,26.403 152.473,34.48 156.823,27.508 157.287,35.712 162.478,29.34 161.907,37.534 
			167.855,31.864 166.264,39.931 172.875,35.04 170.284,42.842 177.46,38.821 173.907,46.242 181.532,43.153 177.083,50.059 
			185.028,47.957 179.75,54.257 187.893,53.158 181.867,58.75 190.091,58.68 183.41,63.469 191.579,64.435 184.346,68.349 
			192.332,70.334 184.666,73.312 192.332,76.273 184.355,78.268 191.593,82.172 183.429,83.148 188.128,87.403 181.903,87.871 		"/>
	</g>
	<radialGradient id="SVGID_7_" cx="115.499" cy="48.5234" r="81.3909" gradientUnits="userSpaceOnUse">
		<stop  offset="0.0979" style="stop-color:#FFFFFF"/>
		<stop  offset="0.2938" style="stop-color:#FCEF6A"/>
		<stop  offset="0.5412" style="stop-color:#FBC834"/>
		<stop  offset="1" style="stop-color:#F79127"/>
	</radialGradient>
	<path fill="url(#SVGID_7_)" d="M191.802,73.229c0,25.681-20.825,46.506-46.511,46.506c-25.687,0-46.506-20.825-46.506-46.506
		c0-25.685,20.819-46.505,46.506-46.505C170.977,26.724,191.802,47.544,191.802,73.229z"/>
	<path opacity="0.25" fill="#FFFFFF" d="M119.871,107.19c1.628-11.659,7.322-22.067,14.504-31.202
		c10.932-13.889,25.884-24.138,41.732-32.342c-7.787-8.158-18.76-13.257-30.934-13.257c-23.614,0-42.759,19.146-42.759,42.754
		c0,14.123,6.849,26.638,17.405,34.43C119.836,107.44,119.85,107.318,119.871,107.19z"/>
	<g>
		<g>
			<g opacity="0">
				<path fill="#FEE938" d="M145.291,31.05c23.258,0,42.175,18.922,42.175,42.18c0,23.248-18.917,42.175-42.175,42.175
					c-23.253,0-42.175-18.927-42.175-42.175C103.116,49.972,122.038,31.05,145.291,31.05 M145.291,28.027
					c-24.963,0-45.203,20.24-45.203,45.203s20.24,45.198,45.203,45.198s45.203-20.235,45.203-45.198S170.254,28.027,145.291,28.027
					L145.291,28.027z"/>
			</g>
		</g>
		<g opacity="0.25">
			<path fill="#FEE938" d="M145.291,30.124c23.771,0,43.106,19.339,43.106,43.105s-19.335,43.105-43.106,43.105
				c-23.772,0-43.11-19.339-43.11-43.105S121.519,30.124,145.291,30.124 M145.291,27.701c-25.146,0-45.534,20.377-45.534,45.528
				c0,25.141,20.387,45.529,45.534,45.529s45.534-20.389,45.534-45.529C190.825,48.078,170.438,27.701,145.291,27.701
				L145.291,27.701z"/>
		</g>
		<g opacity="0.5">
			<path fill="#FEE938" d="M145.291,29.193c24.28,0,44.037,19.756,44.037,44.037c0,24.281-19.757,44.038-44.037,44.038
				c-24.281,0-44.037-19.757-44.037-44.038C101.254,48.949,121.01,29.193,145.291,29.193 M145.291,27.376
				c-25.323,0-45.854,20.53-45.854,45.854c0,25.324,20.531,45.85,45.854,45.85c25.329,0,45.858-20.525,45.858-45.85
				C191.149,47.906,170.62,27.376,145.291,27.376L145.291,27.376z"/>
		</g>
		<g opacity="0.75">
			<path fill="#FEE938" d="M145.291,28.256c24.795,0,44.974,20.174,44.974,44.974c0,24.795-20.179,44.969-44.974,44.969
				c-24.8,0-44.969-20.174-44.969-44.969C100.322,48.43,120.491,28.256,145.291,28.256 M145.291,27.05
				c-25.502,0-46.18,20.672-46.18,46.179c0,25.503,20.678,46.18,46.18,46.18c25.501,0,46.181-20.677,46.181-46.18
				C191.472,47.722,170.792,27.05,145.291,27.05L145.291,27.05z"/>
		</g>
		<g>
			<g>
				<path fill="#FEE938" d="M145.291,27.33c25.309,0,45.9,20.591,45.9,45.899c0,25.31-20.592,45.895-45.9,45.895
					c-25.31,0-45.901-20.585-45.901-45.895C99.39,47.921,119.981,27.33,145.291,27.33 M145.291,26.724
					c-25.687,0-46.506,20.82-46.506,46.505c0,25.681,20.819,46.506,46.506,46.506c25.686,0,46.511-20.825,46.511-46.506
					C191.802,47.544,170.977,26.724,145.291,26.724L145.291,26.724z"/>
			</g>
		</g>
	</g>
	<path opacity="0.5" fill="#FFFFFF" d="M103.198,74.7c0-24.062,19.512-43.568,43.574-43.568c23.772,0,43.085,19.033,43.553,42.693
		c0-0.198,0.017-0.396,0.017-0.596c0-24.887-20.174-45.055-45.057-45.055c-24.881,0-45.049,20.168-45.049,45.055
		c0,24.876,20.168,45.051,45.049,45.051c0.245,0,0.489-0.015,0.734-0.021C122.304,117.853,103.198,98.514,103.198,74.7z"/>
</g>
</svg>
